<svg id="Gemamex_logo_Hor_Black_Red_Symbol_RGB_Cyrillic_copy" data-name="Gemamex_logo_Hor_Black_Red_Symbol_RGB_Cyrillic copy" xmlns="http://www.w3.org/2000/svg" width="283.538" height="44.862" viewBox="0 0 283.538 44.862">
  <g id="Group_2" data-name="Group 2" transform="translate(99.34 9.914)">
    <path id="Path_1" data-name="Path 1" d="M265.153,55.03h-.547a9.463,9.463,0,0,0-7.192,3.329l-.134.152-.134-.152a9.473,9.473,0,0,0-7.192-3.329h-.3a9.49,9.49,0,0,0-9.306,9.477v8.821a.657.657,0,0,0,.656.656h2.989a.657.657,0,0,0,.656-.656V64.507a5.19,5.19,0,0,1,5.182-5.182h.128a5.19,5.19,0,0,1,5.182,5.182v8.821a.657.657,0,0,0,.656.656h2.989a.657.657,0,0,0,.656-.656V64.507a5.19,5.19,0,0,1,5.182-5.182h.528l-.018-.419h.018l.018.419a4.877,4.877,0,0,1,4.763,5.182v8.821a.657.657,0,0,0,.656.656h2.989a.657.657,0,0,0,.656-.656V64.507A9.2,9.2,0,0,0,265.153,55.03Z" transform="translate(-209.527 -48.949)"/>
    <path id="Path_2" data-name="Path 2" d="M361.523,55.03h-.547a9.463,9.463,0,0,0-7.192,3.329l-.134.152-.134-.152a9.472,9.472,0,0,0-7.192-3.329h-.3a9.49,9.49,0,0,0-9.307,9.477v8.821a.657.657,0,0,0,.656.656h2.989a.657.657,0,0,0,.656-.656V64.507a5.19,5.19,0,0,1,5.182-5.182h.128a5.19,5.19,0,0,1,5.182,5.182v8.821a.657.657,0,0,0,.656.656h2.989a.657.657,0,0,0,.656-.656V64.507a5.19,5.19,0,0,1,5.182-5.182h.528l-.018-.419h.018l.018.419a4.877,4.877,0,0,1,4.763,5.182v8.821a.657.657,0,0,0,.656.656h2.989a.657.657,0,0,0,.656-.656V64.507A9.21,9.21,0,0,0,361.523,55.03Z" transform="translate(-247.354 -48.949)"/>
    <g id="Group_1" data-name="Group 1" transform="translate(147.877 6.05)">
      <path id="Path_3" data-name="Path 3" d="M447.7,62.658l-.213-.079.128-.182a9.412,9.412,0,0,0,1.61-5.006c0-.085.006-.176.006-.261V55.636a.657.657,0,0,0-.656-.656h-2.989a.657.657,0,0,0-.656.656V57.13a5.18,5.18,0,0,1-5.176,5.176h-2.412v-6.67a.657.657,0,0,0-.656-.656H433.7a.657.657,0,0,0-.656.656V73.277a.636.636,0,0,0,.091.328.609.609,0,0,0,.243.237.676.676,0,0,0,.328.085h3.639v-7.32h8.371a1.486,1.486,0,0,1,1.519,1.519v5.157a.657.657,0,0,0,.656.656h2.989a.657.657,0,0,0,.656-.656V68.041A5.786,5.786,0,0,0,447.7,62.658Z" transform="translate(-433.04 -54.98)"/>
      <path id="Path_4" data-name="Path 4" d="M475.387,59.281h6.221a.657.657,0,0,0,.656-.656V55.636a.657.657,0,0,0-.656-.656h-6.221a9.477,9.477,0,0,0,0,18.953h6.221a.657.657,0,0,0,.656-.656V70.288a.657.657,0,0,0-.656-.656h-6.221a5.176,5.176,0,1,1,0-10.351Z" transform="translate(-445.942 -54.98)"/>
    </g>
    <path id="Path_5" data-name="Path 5" d="M203.193,45.312a.292.292,0,0,0-.292-.292h-5.285c-3.888,0-8.007,1.294-8.007,7.654V69.392a.653.653,0,0,0,.656.656h2.989a.653.653,0,0,0,.656-.656V52.674a3.055,3.055,0,0,1,3.359-3.359h5.656a.272.272,0,0,0,.273-.273v-3.73Z" transform="translate(-189.61 -45.02)"/>
    <path id="Path_6" data-name="Path 6" d="M222.847,69.686h-9.58a5.18,5.18,0,1,1,0-10.357h5.127a1.587,1.587,0,0,1,1.616,1.379,1.519,1.519,0,0,1-1.507,1.658h-7.557a.924.924,0,0,0-.729.346,2.586,2.586,0,0,0-.583,1.756,3.5,3.5,0,0,0,.656,1.822.893.893,0,0,0,.729.377h7.259a5.964,5.964,0,0,0,6.026-5.437,5.82,5.82,0,0,0-5.8-6.19h-4.939a9.675,9.675,0,0,0-9.762,9.021,9.487,9.487,0,0,0,9.464,9.932h9.58a.679.679,0,0,0,.68-.68v-2.94A.684.684,0,0,0,222.847,69.686Z" transform="translate(-195.177 -48.953)"/>
    <path id="Path_7" data-name="Path 7" d="M414.827,69.686h-9.58a5.18,5.18,0,1,1,0-10.357h5.127a1.587,1.587,0,0,1,1.616,1.379,1.519,1.519,0,0,1-1.507,1.658h-7.557a.924.924,0,0,0-.729.346,2.586,2.586,0,0,0-.583,1.756,3.5,3.5,0,0,0,.656,1.822.893.893,0,0,0,.729.377h7.259a5.964,5.964,0,0,0,6.026-5.437,5.82,5.82,0,0,0-5.8-6.19h-4.939a9.675,9.675,0,0,0-9.762,9.021,9.487,9.487,0,0,0,9.464,9.932h9.58a.679.679,0,0,0,.68-.68v-2.94A.681.681,0,0,0,414.827,69.686Z" transform="translate(-270.534 -48.953)"/>
    <path id="Path_8" data-name="Path 8" d="M300.97,59.317h9.58c3.244.121,5.267,2.084,5.3,5.127.036,2.958-1.95,5.157-5.728,5.23h-4.7a1.587,1.587,0,0,1-1.616-1.379,1.519,1.519,0,0,1,1.506-1.658h7.557a.924.924,0,0,0,.729-.346,3.223,3.223,0,0,0,.6-1.853,2.439,2.439,0,0,0-.583-1.756.923.923,0,0,0-.814-.346h-7.259a5.964,5.964,0,0,0-6.026,5.437,5.82,5.82,0,0,0,5.8,6.19h4.939a9.365,9.365,0,0,0,9.786-9.477,9.553,9.553,0,0,0-9.489-9.477h-9.58a.679.679,0,0,0-.68.68v2.94A.681.681,0,0,0,300.97,59.317Z" transform="translate(-232.745 -48.941)"/>
  </g>
  <path id="Path_9" data-name="Path 9" d="M103.12,51.128A22.417,22.417,0,0,0,65.8,34.374l-15.387,17,4.514,4.769a1.154,1.154,0,0,1-.838,1.95H40.015a1.16,1.16,0,0,1-1.16-1.16V42.083a1.158,1.158,0,0,1,2-.8l4.89,5.164L59.309,31.476A22.431,22.431,0,1,0,63.731,67.6l14.64-16.171L73.609,46.4a1.154,1.154,0,0,1,.838-1.95H88.51a1.16,1.16,0,0,1,1.16,1.16V60.459a1.158,1.158,0,0,1-2,.8l-4.641-4.9L69.934,70.81A22.423,22.423,0,0,0,103.12,51.128Z" transform="translate(-26.08 -28.7)" fill="#dc003a"/>
</svg>
