<?xml version="1.0" encoding="UTF-8" standalone="no"?><!DOCTYPE svg PUBLIC "-//W3C//DTD SVG 1.1//EN" "http://www.w3.org/Graphics/SVG/1.1/DTD/svg11.dtd"><svg width="100%" height="100%" viewBox="0 0 208 73" version="1.1" xmlns="http://www.w3.org/2000/svg" xmlns:xlink="http://www.w3.org/1999/xlink" xml:space="preserve" xmlns:serif="http://www.serif.com/" style="fill-rule:evenodd;clip-rule:evenodd;stroke-linejoin:round;stroke-miterlimit:2;"><g><path d="M73.816,53.14c-0,-0.193 -0.071,-0.351 -0.211,-0.474c-0.141,-0.124 -0.332,-0.186 -0.572,-0.186c-0.261,0 -0.464,0.073 -0.608,0.217c-0.144,0.144 -0.226,0.292 -0.247,0.443l1.638,-0Zm2.049,0.772c0,0.089 -0.001,0.18 -0.005,0.273c-0.003,0.093 -0.008,0.17 -0.015,0.232l-3.646,-0c0.007,0.096 0.039,0.182 0.098,0.257c0.058,0.076 0.13,0.141 0.216,0.196c0.086,0.055 0.182,0.096 0.288,0.124c0.107,0.027 0.215,0.041 0.325,0.041c0.219,-0 0.403,-0.04 0.551,-0.119c0.147,-0.079 0.259,-0.166 0.334,-0.262l1.69,0.854c-0.241,0.392 -0.589,0.701 -1.046,0.927c-0.456,0.227 -0.987,0.34 -1.591,0.34c-0.392,0 -0.773,-0.061 -1.143,-0.185c-0.371,-0.124 -0.699,-0.307 -0.984,-0.551c-0.285,-0.244 -0.513,-0.548 -0.685,-0.912c-0.172,-0.364 -0.257,-0.786 -0.257,-1.266c-0,-0.447 0.079,-0.85 0.236,-1.211c0.158,-0.36 0.373,-0.666 0.644,-0.916c0.271,-0.251 0.591,-0.445 0.958,-0.582c0.367,-0.138 0.76,-0.206 1.179,-0.206c0.426,-0 0.814,0.074 1.164,0.221c0.35,0.148 0.651,0.354 0.901,0.618c0.251,0.265 0.445,0.579 0.582,0.943c0.138,0.364 0.206,0.758 0.206,1.184Z" style="fill:#008f11;fill-rule:nonzero;"/><rect x="76.7" y="48.783" width="2.431" height="7.786" style="fill:#008f11;fill-rule:nonzero;"/><path d="M83.827,53.14c-0,-0.193 -0.07,-0.351 -0.211,-0.474c-0.141,-0.124 -0.332,-0.186 -0.572,-0.186c-0.261,0 -0.463,0.073 -0.608,0.217c-0.144,0.144 -0.226,0.292 -0.247,0.443l1.638,-0Zm2.049,0.772c0,0.089 -0.001,0.18 -0.005,0.273c-0.003,0.093 -0.008,0.17 -0.015,0.232l-3.646,-0c0.007,0.096 0.039,0.182 0.098,0.257c0.058,0.076 0.13,0.141 0.216,0.196c0.086,0.055 0.182,0.096 0.288,0.124c0.107,0.027 0.215,0.041 0.325,0.041c0.22,-0 0.403,-0.04 0.551,-0.119c0.147,-0.079 0.259,-0.166 0.335,-0.262l1.689,0.854c-0.241,0.392 -0.589,0.701 -1.046,0.927c-0.456,0.227 -0.987,0.34 -1.591,0.34c-0.391,0 -0.772,-0.061 -1.143,-0.185c-0.371,-0.124 -0.699,-0.307 -0.984,-0.551c-0.285,-0.244 -0.513,-0.548 -0.685,-0.912c-0.171,-0.364 -0.257,-0.786 -0.257,-1.266c-0,-0.447 0.079,-0.85 0.237,-1.211c0.158,-0.36 0.372,-0.666 0.643,-0.916c0.272,-0.251 0.591,-0.445 0.958,-0.582c0.368,-0.138 0.761,-0.206 1.18,-0.206c0.425,-0 0.813,0.074 1.163,0.221c0.351,0.148 0.651,0.354 0.902,0.618c0.25,0.265 0.444,0.579 0.582,0.943c0.137,0.364 0.205,0.758 0.205,1.184Z" style="fill:#008f11;fill-rule:nonzero;"/><path d="M89.656,56.775c-0.46,0 -0.882,-0.068 -1.266,-0.206c-0.385,-0.137 -0.718,-0.333 -0.999,-0.587c-0.282,-0.254 -0.502,-0.559 -0.66,-0.916c-0.158,-0.357 -0.237,-0.759 -0.237,-1.205c0,-0.44 0.081,-0.84 0.243,-1.2c0.161,-0.361 0.386,-0.668 0.674,-0.922c0.289,-0.254 0.627,-0.45 1.015,-0.587c0.388,-0.138 0.808,-0.206 1.261,-0.206c0.186,-0 0.373,0.015 0.562,0.046c0.188,0.031 0.37,0.074 0.546,0.129c0.175,0.055 0.336,0.117 0.484,0.185c0.147,0.069 0.273,0.144 0.376,0.227l-1.185,1.71c-0.082,-0.097 -0.19,-0.17 -0.324,-0.222c-0.134,-0.051 -0.263,-0.077 -0.387,-0.077c-0.116,-0 -0.23,0.019 -0.339,0.057c-0.11,0.037 -0.208,0.096 -0.294,0.175c-0.086,0.079 -0.156,0.175 -0.211,0.288c-0.055,0.113 -0.083,0.246 -0.083,0.397c0,0.151 0.028,0.283 0.083,0.396c0.055,0.113 0.125,0.206 0.211,0.278c0.086,0.072 0.184,0.127 0.294,0.165c0.109,0.038 0.223,0.057 0.339,0.057c0.138,-0 0.272,-0.026 0.402,-0.078c0.131,-0.051 0.237,-0.122 0.319,-0.211l1.195,1.669c-0.226,0.178 -0.52,0.329 -0.88,0.453c-0.361,0.124 -0.74,0.185 -1.139,0.185Z" style="fill:#008f11;fill-rule:nonzero;"/><path d="M94.487,56.714c-0.728,-0 -1.267,-0.157 -1.617,-0.469c-0.35,-0.313 -0.525,-0.798 -0.525,-1.457l-0,-1.937l-0.763,0l0,-1.699l0.752,-0l0,-1.216l2.307,0l0,1.216l1.175,-0l-0,1.699l-1.175,0l0,1.442c0,0.261 0.057,0.438 0.17,0.531c0.114,0.092 0.27,0.139 0.469,0.139c0.076,-0 0.154,-0.007 0.237,-0.021c0.082,-0.014 0.148,-0.027 0.196,-0.041l-0,1.627c-0.124,0.055 -0.297,0.1 -0.521,0.134c-0.223,0.034 -0.458,0.052 -0.705,0.052Z" style="fill:#008f11;fill-rule:nonzero;"/><path d="M96.464,51.152l2.287,-0l-0,0.618l0.021,-0c0.116,-0.22 0.29,-0.402 0.52,-0.546c0.23,-0.144 0.499,-0.216 0.808,-0.216c0.186,-0 0.337,0.017 0.453,0.051l-0.185,2.019c-0.076,-0.021 -0.16,-0.036 -0.252,-0.047c-0.093,-0.01 -0.177,-0.015 -0.253,-0.015c-0.309,-0 -0.556,0.089 -0.741,0.268c-0.186,0.178 -0.278,0.398 -0.278,0.659l-0,2.626l-2.38,0l0,-5.417Z" style="fill:#008f11;fill-rule:nonzero;"/><path d="M106.826,53.84c-0,0.467 -0.084,0.882 -0.253,1.246c-0.168,0.364 -0.394,0.671 -0.679,0.922c-0.285,0.251 -0.615,0.441 -0.989,0.572c-0.374,0.13 -0.767,0.195 -1.179,0.195c-0.405,0 -0.795,-0.065 -1.169,-0.195c-0.375,-0.131 -0.702,-0.321 -0.984,-0.572c-0.281,-0.251 -0.506,-0.558 -0.675,-0.922c-0.168,-0.364 -0.252,-0.779 -0.252,-1.246c0,-0.46 0.084,-0.87 0.252,-1.231c0.169,-0.36 0.394,-0.664 0.675,-0.911c0.282,-0.248 0.609,-0.435 0.984,-0.562c0.374,-0.127 0.764,-0.19 1.169,-0.19c0.412,-0 0.805,0.063 1.179,0.19c0.374,0.127 0.704,0.314 0.989,0.562c0.285,0.247 0.511,0.551 0.679,0.911c0.169,0.361 0.253,0.771 0.253,1.231Zm-3.1,-0.896c-0.261,-0 -0.472,0.089 -0.634,0.268c-0.161,0.178 -0.242,0.388 -0.242,0.628c0,0.254 0.083,0.47 0.247,0.649c0.165,0.178 0.378,0.268 0.639,0.268c0.261,-0 0.474,-0.09 0.639,-0.268c0.164,-0.179 0.247,-0.395 0.247,-0.649c-0,-0.24 -0.084,-0.45 -0.253,-0.628c-0.168,-0.179 -0.382,-0.268 -0.643,-0.268Z" style="fill:#008f11;fill-rule:nonzero;"/><path d="M107.701,51.152l2.318,-0l-0,0.597l0.02,0c0.138,-0.199 0.342,-0.372 0.613,-0.52c0.271,-0.148 0.582,-0.221 0.932,-0.221c0.378,-0 0.692,0.068 0.943,0.206c0.25,0.137 0.449,0.314 0.597,0.53c0.148,0.216 0.251,0.458 0.309,0.726c0.058,0.268 0.088,0.536 0.088,0.803l-0,3.296l-2.39,0l0,-2.884c0,-0.274 -0.043,-0.466 -0.129,-0.576c-0.086,-0.11 -0.214,-0.165 -0.386,-0.165c-0.158,-0 -0.287,0.063 -0.386,0.19c-0.1,0.127 -0.15,0.311 -0.15,0.551l0,2.884l-2.379,0l0,-5.417Z" style="fill:#008f11;fill-rule:nonzero;"/><path d="M114.571,51.152l2.379,-0l0,5.417l-2.379,0l0,-5.417Zm-0.041,-1.566c-0,-0.165 0.032,-0.321 0.098,-0.468c0.065,-0.148 0.154,-0.277 0.268,-0.387c0.113,-0.109 0.245,-0.197 0.396,-0.262c0.151,-0.065 0.312,-0.098 0.484,-0.098c0.165,-0 0.319,0.033 0.464,0.098c0.144,0.065 0.273,0.153 0.386,0.262c0.113,0.11 0.202,0.239 0.268,0.387c0.065,0.147 0.097,0.303 0.097,0.468c0,0.172 -0.032,0.332 -0.097,0.479c-0.066,0.148 -0.155,0.275 -0.268,0.381c-0.113,0.107 -0.242,0.191 -0.386,0.253c-0.145,0.061 -0.299,0.092 -0.464,0.092c-0.172,0 -0.333,-0.031 -0.484,-0.092c-0.151,-0.062 -0.283,-0.146 -0.396,-0.253c-0.114,-0.106 -0.203,-0.233 -0.268,-0.381c-0.066,-0.147 -0.098,-0.307 -0.098,-0.479Z" style="fill:#008f11;fill-rule:nonzero;"/><path d="M120.998,56.775c-0.46,0 -0.882,-0.068 -1.267,-0.206c-0.384,-0.137 -0.717,-0.333 -0.999,-0.587c-0.281,-0.254 -0.501,-0.559 -0.659,-0.916c-0.158,-0.357 -0.237,-0.759 -0.237,-1.205c0,-0.44 0.081,-0.84 0.242,-1.2c0.161,-0.361 0.386,-0.668 0.675,-0.922c0.288,-0.254 0.626,-0.45 1.014,-0.587c0.388,-0.138 0.809,-0.206 1.262,-0.206c0.185,-0 0.372,0.015 0.561,0.046c0.189,0.031 0.371,0.074 0.546,0.129c0.175,0.055 0.337,0.117 0.484,0.185c0.148,0.069 0.273,0.144 0.376,0.227l-1.184,1.71c-0.083,-0.097 -0.191,-0.17 -0.325,-0.222c-0.134,-0.051 -0.262,-0.077 -0.386,-0.077c-0.117,-0 -0.23,0.019 -0.34,0.057c-0.11,0.037 -0.208,0.096 -0.293,0.175c-0.086,0.079 -0.157,0.175 -0.212,0.288c-0.055,0.113 -0.082,0.246 -0.082,0.397c0,0.151 0.027,0.283 0.082,0.396c0.055,0.113 0.126,0.206 0.212,0.278c0.085,0.072 0.183,0.127 0.293,0.165c0.11,0.038 0.223,0.057 0.34,0.057c0.137,-0 0.271,-0.026 0.402,-0.078c0.13,-0.051 0.237,-0.122 0.319,-0.211l1.195,1.669c-0.227,0.178 -0.52,0.329 -0.881,0.453c-0.36,0.124 -0.74,0.185 -1.138,0.185Z" style="fill:#008f11;fill-rule:nonzero;"/><path d="M127.909,54.849c-0,0.364 -0.077,0.67 -0.232,0.917c-0.154,0.247 -0.35,0.445 -0.587,0.592c-0.237,0.148 -0.496,0.254 -0.777,0.319c-0.282,0.066 -0.55,0.098 -0.804,0.098c-0.467,0 -0.925,-0.067 -1.375,-0.201c-0.45,-0.133 -0.839,-0.324 -1.169,-0.571l1.164,-1.349c0.165,0.151 0.359,0.273 0.582,0.365c0.223,0.093 0.438,0.139 0.644,0.139c0.082,0 0.159,-0.015 0.231,-0.046c0.073,-0.031 0.109,-0.088 0.109,-0.17c-0,-0.089 -0.064,-0.16 -0.191,-0.211c-0.127,-0.052 -0.348,-0.115 -0.664,-0.191c-0.172,-0.041 -0.347,-0.101 -0.526,-0.18c-0.178,-0.079 -0.341,-0.184 -0.489,-0.314c-0.147,-0.131 -0.269,-0.29 -0.365,-0.479c-0.097,-0.189 -0.145,-0.414 -0.145,-0.675c0,-0.35 0.078,-0.648 0.232,-0.896c0.155,-0.247 0.35,-0.448 0.587,-0.602c0.237,-0.155 0.495,-0.268 0.773,-0.34c0.278,-0.072 0.54,-0.108 0.788,-0.108c0.418,-0 0.834,0.062 1.246,0.185c0.412,0.124 0.783,0.295 1.112,0.515l-1.112,1.329c-0.172,-0.11 -0.347,-0.196 -0.525,-0.258c-0.179,-0.061 -0.354,-0.092 -0.526,-0.092c-0.116,-0 -0.213,0.015 -0.288,0.046c-0.076,0.031 -0.113,0.091 -0.113,0.18c-0,0.069 0.043,0.122 0.128,0.16c0.086,0.038 0.284,0.087 0.593,0.149c0.212,0.041 0.42,0.105 0.623,0.191c0.202,0.086 0.384,0.195 0.546,0.329c0.161,0.134 0.29,0.297 0.386,0.49c0.096,0.192 0.144,0.418 0.144,0.679Z" style="fill:#008f11;fill-rule:nonzero;"/><path d="M136.138,56.044c-0.219,0.192 -0.499,0.352 -0.839,0.479c-0.34,0.127 -0.747,0.191 -1.221,0.191c-0.35,-0 -0.697,-0.042 -1.04,-0.124c-0.343,-0.082 -0.65,-0.213 -0.922,-0.391c-0.271,-0.179 -0.492,-0.412 -0.664,-0.701c-0.172,-0.288 -0.257,-0.635 -0.257,-1.04c-0,-0.234 0.037,-0.452 0.113,-0.654c0.075,-0.203 0.177,-0.385 0.304,-0.546c0.127,-0.161 0.278,-0.306 0.453,-0.433c0.175,-0.127 0.362,-0.231 0.561,-0.314c-0.199,-0.178 -0.367,-0.393 -0.504,-0.643c-0.138,-0.251 -0.206,-0.534 -0.206,-0.85c-0,-0.357 0.08,-0.659 0.242,-0.906c0.161,-0.248 0.369,-0.449 0.623,-0.603c0.254,-0.154 0.535,-0.266 0.844,-0.335c0.309,-0.068 0.611,-0.103 0.907,-0.103c0.302,0 0.602,0.036 0.901,0.108c0.299,0.073 0.568,0.188 0.808,0.345c0.241,0.158 0.436,0.363 0.587,0.613c0.151,0.251 0.227,0.555 0.227,0.912c0,0.226 -0.038,0.431 -0.113,0.613c-0.076,0.182 -0.179,0.346 -0.309,0.494c-0.131,0.148 -0.28,0.282 -0.448,0.402c-0.169,0.12 -0.349,0.231 -0.541,0.334l0.505,0.474l0.566,-0.813l2.565,-0l-1.751,2.132l1.977,1.884l-2.863,0l-0.505,-0.525Zm-1.586,-5.397c-0.158,0 -0.276,0.048 -0.355,0.144c-0.079,0.096 -0.119,0.206 -0.119,0.33c0,0.117 0.035,0.226 0.103,0.329c0.069,0.103 0.162,0.2 0.279,0.289c0.157,-0.062 0.288,-0.146 0.391,-0.252c0.103,-0.107 0.154,-0.229 0.154,-0.366c0,-0.137 -0.037,-0.251 -0.113,-0.34c-0.075,-0.089 -0.189,-0.134 -0.34,-0.134Zm-0.638,3.111c-0.096,0.034 -0.187,0.096 -0.273,0.185c-0.086,0.089 -0.129,0.216 -0.129,0.381c-0,0.103 0.021,0.189 0.062,0.258c0.041,0.068 0.096,0.127 0.165,0.175c0.068,0.048 0.144,0.082 0.226,0.103c0.083,0.02 0.161,0.031 0.237,0.031c0.13,-0 0.252,-0.021 0.366,-0.062c0.113,-0.041 0.197,-0.093 0.252,-0.155l-0.906,-0.916Z" style="fill:#008f11;fill-rule:nonzero;"/><path d="M146.16,53.14c-0,-0.193 -0.071,-0.351 -0.211,-0.474c-0.141,-0.124 -0.332,-0.186 -0.572,-0.186c-0.261,0 -0.463,0.073 -0.608,0.217c-0.144,0.144 -0.226,0.292 -0.247,0.443l1.638,-0Zm2.049,0.772c0,0.089 -0.001,0.18 -0.005,0.273c-0.003,0.093 -0.008,0.17 -0.015,0.232l-3.646,-0c0.007,0.096 0.039,0.182 0.098,0.257c0.058,0.076 0.13,0.141 0.216,0.196c0.086,0.055 0.182,0.096 0.288,0.124c0.107,0.027 0.215,0.041 0.325,0.041c0.219,-0 0.403,-0.04 0.551,-0.119c0.147,-0.079 0.259,-0.166 0.335,-0.262l1.689,0.854c-0.241,0.392 -0.589,0.701 -1.046,0.927c-0.456,0.227 -0.987,0.34 -1.591,0.34c-0.391,0 -0.773,-0.061 -1.143,-0.185c-0.371,-0.124 -0.699,-0.307 -0.984,-0.551c-0.285,-0.244 -0.513,-0.548 -0.685,-0.912c-0.171,-0.364 -0.257,-0.786 -0.257,-1.266c-0,-0.447 0.079,-0.85 0.237,-1.211c0.157,-0.36 0.372,-0.666 0.643,-0.916c0.272,-0.251 0.591,-0.445 0.958,-0.582c0.367,-0.138 0.761,-0.206 1.179,-0.206c0.426,-0 0.814,0.074 1.164,0.221c0.35,0.148 0.651,0.354 0.902,0.618c0.25,0.265 0.444,0.579 0.581,0.943c0.138,0.364 0.206,0.758 0.206,1.184Z" style="fill:#008f11;fill-rule:nonzero;"/><path d="M149.044,51.152l2.317,-0l0,0.597l0.021,0c0.137,-0.199 0.341,-0.372 0.613,-0.52c0.271,-0.148 0.581,-0.221 0.932,-0.221c0.377,-0 0.691,0.068 0.942,0.206c0.251,0.137 0.45,0.314 0.597,0.53c0.148,0.216 0.251,0.458 0.309,0.726c0.059,0.268 0.088,0.536 0.088,0.803l-0,3.296l-2.39,0l0,-2.884c0,-0.274 -0.042,-0.466 -0.128,-0.576c-0.086,-0.11 -0.215,-0.165 -0.387,-0.165c-0.157,-0 -0.286,0.063 -0.386,0.19c-0.099,0.127 -0.149,0.311 -0.149,0.551l-0,2.884l-2.379,0l-0,-5.417Z" style="fill:#008f11;fill-rule:nonzero;"/><path d="M155.687,53.84c-0,-0.35 0.053,-0.694 0.16,-1.03c0.106,-0.336 0.262,-0.639 0.468,-0.906c0.206,-0.268 0.464,-0.484 0.773,-0.649c0.309,-0.165 0.666,-0.247 1.071,-0.247c0.288,-0 0.571,0.055 0.85,0.164c0.278,0.11 0.506,0.285 0.684,0.526l0.031,-0l0,-0.546l2.235,-0l0,4.861c0,0.591 -0.096,1.082 -0.288,1.473c-0.192,0.391 -0.448,0.702 -0.767,0.932c-0.32,0.23 -0.682,0.392 -1.087,0.484c-0.405,0.093 -0.817,0.139 -1.236,0.139c-0.515,0 -1.03,-0.067 -1.545,-0.201c-0.515,-0.133 -0.965,-0.331 -1.349,-0.592l1.04,-1.576c0.261,0.199 0.536,0.345 0.824,0.438c0.289,0.093 0.563,0.139 0.824,0.139c0.172,0 0.335,-0.022 0.489,-0.067c0.155,-0.044 0.29,-0.11 0.407,-0.196c0.117,-0.085 0.21,-0.192 0.278,-0.319c0.069,-0.127 0.103,-0.273 0.103,-0.438l0,-0.236l-0.031,-0c-0.13,0.151 -0.324,0.285 -0.582,0.401c-0.257,0.117 -0.551,0.175 -0.88,0.175c-0.419,0 -0.783,-0.073 -1.092,-0.221c-0.309,-0.148 -0.566,-0.347 -0.772,-0.597c-0.206,-0.251 -0.359,-0.541 -0.459,-0.871c-0.099,-0.329 -0.149,-0.676 -0.149,-1.04Zm2.204,-0c0,0.261 0.076,0.479 0.227,0.654c0.151,0.175 0.37,0.263 0.659,0.263c0.281,-0 0.506,-0.09 0.674,-0.268c0.169,-0.179 0.253,-0.395 0.253,-0.649c-0,-0.24 -0.084,-0.45 -0.253,-0.628c-0.168,-0.179 -0.393,-0.268 -0.674,-0.268c-0.289,-0 -0.508,0.089 -0.659,0.268c-0.151,0.178 -0.227,0.388 -0.227,0.628Z" style="fill:#008f11;fill-rule:nonzero;"/><path d="M163.092,51.152l2.379,-0l0,5.417l-2.379,0l0,-5.417Zm-0.041,-1.566c0,-0.165 0.033,-0.321 0.098,-0.468c0.065,-0.148 0.154,-0.277 0.268,-0.387c0.113,-0.109 0.245,-0.197 0.396,-0.262c0.151,-0.065 0.313,-0.098 0.484,-0.098c0.165,-0 0.32,0.033 0.464,0.098c0.144,0.065 0.273,0.153 0.386,0.262c0.113,0.11 0.203,0.239 0.268,0.387c0.065,0.147 0.098,0.303 0.098,0.468c-0,0.172 -0.033,0.332 -0.098,0.479c-0.065,0.148 -0.155,0.275 -0.268,0.381c-0.113,0.107 -0.242,0.191 -0.386,0.253c-0.144,0.061 -0.299,0.092 -0.464,0.092c-0.171,0 -0.333,-0.031 -0.484,-0.092c-0.151,-0.062 -0.283,-0.146 -0.396,-0.253c-0.114,-0.106 -0.203,-0.233 -0.268,-0.381c-0.065,-0.147 -0.098,-0.307 -0.098,-0.479Z" style="fill:#008f11;fill-rule:nonzero;"/><path d="M166.574,51.152l2.317,-0l-0,0.597l0.021,0c0.137,-0.199 0.341,-0.372 0.612,-0.52c0.272,-0.148 0.582,-0.221 0.932,-0.221c0.378,-0 0.692,0.068 0.943,0.206c0.251,0.137 0.45,0.314 0.597,0.53c0.148,0.216 0.251,0.458 0.309,0.726c0.059,0.268 0.088,0.536 0.088,0.803l-0,3.296l-2.39,0l0,-2.884c0,-0.274 -0.043,-0.466 -0.128,-0.576c-0.086,-0.11 -0.215,-0.165 -0.387,-0.165c-0.158,-0 -0.286,0.063 -0.386,0.19c-0.099,0.127 -0.149,0.311 -0.149,0.551l-0,2.884l-2.379,0l-0,-5.417Z" style="fill:#008f11;fill-rule:nonzero;"/><path d="M177.038,53.14c-0,-0.193 -0.07,-0.351 -0.211,-0.474c-0.141,-0.124 -0.332,-0.186 -0.572,-0.186c-0.261,0 -0.463,0.073 -0.608,0.217c-0.144,0.144 -0.226,0.292 -0.247,0.443l1.638,-0Zm2.05,0.772c-0,0.089 -0.002,0.18 -0.006,0.273c-0.003,0.093 -0.008,0.17 -0.015,0.232l-3.646,-0c0.007,0.096 0.039,0.182 0.098,0.257c0.058,0.076 0.13,0.141 0.216,0.196c0.086,0.055 0.182,0.096 0.288,0.124c0.107,0.027 0.215,0.041 0.325,0.041c0.22,-0 0.403,-0.04 0.551,-0.119c0.147,-0.079 0.259,-0.166 0.335,-0.262l1.689,0.854c-0.241,0.392 -0.589,0.701 -1.046,0.927c-0.456,0.227 -0.987,0.34 -1.591,0.34c-0.391,0 -0.772,-0.061 -1.143,-0.185c-0.371,-0.124 -0.699,-0.307 -0.984,-0.551c-0.285,-0.244 -0.513,-0.548 -0.685,-0.912c-0.171,-0.364 -0.257,-0.786 -0.257,-1.266c-0,-0.447 0.079,-0.85 0.237,-1.211c0.158,-0.36 0.372,-0.666 0.643,-0.916c0.272,-0.251 0.591,-0.445 0.958,-0.582c0.368,-0.138 0.761,-0.206 1.18,-0.206c0.425,-0 0.813,0.074 1.163,0.221c0.351,0.148 0.651,0.354 0.902,0.618c0.25,0.265 0.444,0.579 0.582,0.943c0.137,0.364 0.206,0.758 0.206,1.184Z" style="fill:#008f11;fill-rule:nonzero;"/><path d="M183.527,53.14c-0,-0.193 -0.071,-0.351 -0.212,-0.474c-0.14,-0.124 -0.331,-0.186 -0.571,-0.186c-0.261,0 -0.464,0.073 -0.608,0.217c-0.144,0.144 -0.226,0.292 -0.247,0.443l1.638,-0Zm2.049,0.772c0,0.089 -0.001,0.18 -0.005,0.273c-0.003,0.093 -0.009,0.17 -0.015,0.232l-3.646,-0c0.006,0.096 0.039,0.182 0.097,0.257c0.059,0.076 0.131,0.141 0.217,0.196c0.086,0.055 0.182,0.096 0.288,0.124c0.107,0.027 0.215,0.041 0.325,0.041c0.219,-0 0.403,-0.04 0.551,-0.119c0.147,-0.079 0.259,-0.166 0.334,-0.262l1.689,0.854c-0.24,0.392 -0.588,0.701 -1.045,0.927c-0.457,0.227 -0.987,0.34 -1.591,0.34c-0.392,0 -0.773,-0.061 -1.144,-0.185c-0.37,-0.124 -0.698,-0.307 -0.983,-0.551c-0.285,-0.244 -0.513,-0.548 -0.685,-0.912c-0.172,-0.364 -0.258,-0.786 -0.258,-1.266c0,-0.447 0.079,-0.85 0.237,-1.211c0.158,-0.36 0.373,-0.666 0.644,-0.916c0.271,-0.251 0.591,-0.445 0.958,-0.582c0.367,-0.138 0.76,-0.206 1.179,-0.206c0.426,-0 0.814,0.074 1.164,0.221c0.35,0.148 0.651,0.354 0.901,0.618c0.251,0.265 0.445,0.579 0.582,0.943c0.138,0.364 0.206,0.758 0.206,1.184Z" style="fill:#008f11;fill-rule:nonzero;"/><path d="M186.41,51.152l2.287,-0l-0,0.618l0.021,-0c0.116,-0.22 0.29,-0.402 0.52,-0.546c0.23,-0.144 0.499,-0.216 0.808,-0.216c0.186,-0 0.337,0.017 0.453,0.051l-0.185,2.019c-0.076,-0.021 -0.16,-0.036 -0.252,-0.047c-0.093,-0.01 -0.177,-0.015 -0.253,-0.015c-0.309,-0 -0.556,0.089 -0.741,0.268c-0.186,0.178 -0.278,0.398 -0.278,0.659l-0,2.626l-2.38,0l0,-5.417Z" style="fill:#008f11;fill-rule:nonzero;"/><path d="M191.004,51.152l2.379,-0l0,5.417l-2.379,0l0,-5.417Zm-0.041,-1.566c-0,-0.165 0.033,-0.321 0.098,-0.468c0.065,-0.148 0.154,-0.277 0.268,-0.387c0.113,-0.109 0.245,-0.197 0.396,-0.262c0.151,-0.065 0.312,-0.098 0.484,-0.098c0.165,-0 0.319,0.033 0.464,0.098c0.144,0.065 0.273,0.153 0.386,0.262c0.113,0.11 0.202,0.239 0.268,0.387c0.065,0.147 0.097,0.303 0.097,0.468c0,0.172 -0.032,0.332 -0.097,0.479c-0.066,0.148 -0.155,0.275 -0.268,0.381c-0.113,0.107 -0.242,0.191 -0.386,0.253c-0.145,0.061 -0.299,0.092 -0.464,0.092c-0.172,0 -0.333,-0.031 -0.484,-0.092c-0.151,-0.062 -0.283,-0.146 -0.396,-0.253c-0.114,-0.106 -0.203,-0.233 -0.268,-0.381c-0.065,-0.147 -0.098,-0.307 -0.098,-0.479Z" style="fill:#008f11;fill-rule:nonzero;"/><path d="M194.485,51.152l2.318,-0l-0,0.597l0.02,0c0.138,-0.199 0.342,-0.372 0.613,-0.52c0.271,-0.148 0.582,-0.221 0.932,-0.221c0.378,-0 0.692,0.068 0.943,0.206c0.25,0.137 0.449,0.314 0.597,0.53c0.148,0.216 0.251,0.458 0.309,0.726c0.058,0.268 0.088,0.536 0.088,0.803l-0,3.296l-2.39,0l0,-2.884c0,-0.274 -0.043,-0.466 -0.129,-0.576c-0.085,-0.11 -0.214,-0.165 -0.386,-0.165c-0.158,-0 -0.287,0.063 -0.386,0.19c-0.1,0.127 -0.149,0.311 -0.149,0.551l-0,2.884l-2.38,0l0,-5.417Z" style="fill:#008f11;fill-rule:nonzero;"/><path d="M201.129,53.84c-0,-0.35 0.053,-0.694 0.159,-1.03c0.107,-0.336 0.263,-0.639 0.469,-0.906c0.206,-0.268 0.463,-0.484 0.772,-0.649c0.309,-0.165 0.666,-0.247 1.071,-0.247c0.289,-0 0.572,0.055 0.85,0.164c0.278,0.11 0.507,0.285 0.685,0.526l0.031,-0l-0,-0.546l2.235,-0l-0,4.861c-0,0.591 -0.096,1.082 -0.288,1.473c-0.193,0.391 -0.448,0.702 -0.768,0.932c-0.319,0.23 -0.681,0.392 -1.086,0.484c-0.405,0.093 -0.817,0.139 -1.236,0.139c-0.515,0 -1.03,-0.067 -1.545,-0.201c-0.515,-0.133 -0.965,-0.331 -1.349,-0.592l1.04,-1.576c0.261,0.199 0.535,0.345 0.824,0.438c0.288,0.093 0.563,0.139 0.824,0.139c0.171,0 0.334,-0.022 0.489,-0.067c0.154,-0.044 0.29,-0.11 0.407,-0.196c0.117,-0.085 0.209,-0.192 0.278,-0.319c0.069,-0.127 0.103,-0.273 0.103,-0.438l-0,-0.236l-0.031,-0c-0.13,0.151 -0.324,0.285 -0.582,0.401c-0.257,0.117 -0.551,0.175 -0.881,0.175c-0.418,0 -0.782,-0.073 -1.091,-0.221c-0.309,-0.148 -0.567,-0.347 -0.773,-0.597c-0.206,-0.251 -0.359,-0.541 -0.458,-0.871c-0.1,-0.329 -0.149,-0.676 -0.149,-1.04Zm2.204,-0c-0,0.261 0.075,0.479 0.226,0.654c0.151,0.175 0.371,0.263 0.659,0.263c0.282,-0 0.507,-0.09 0.675,-0.268c0.168,-0.179 0.252,-0.395 0.252,-0.649c0,-0.24 -0.084,-0.45 -0.252,-0.628c-0.168,-0.179 -0.393,-0.268 -0.675,-0.268c-0.288,-0 -0.508,0.089 -0.659,0.268c-0.151,0.178 -0.226,0.388 -0.226,0.628Z" style="fill:#008f11;fill-rule:nonzero;"/><path d="M59.365,34.308l0.284,10.311l-5.723,-0l0,-18.25l8.017,-0l3.299,9.821l0.129,-0l2.861,-9.821l8.275,-0l-0,18.25l-5.955,-0l0.181,-10.26l-0.155,-0.025l-3.403,10.285l-4.33,-0l-3.351,-10.311l-0.129,-0Z" style="fill-rule:nonzero;"/><path d="M84.987,26.369l6.522,-0l7.114,18.25l-6.676,-0l-0.954,-2.681l-5.8,-0l-0.902,2.681l-6.495,-0l7.191,-18.25Zm3.171,6.366l-1.495,4.511l2.964,0l-1.469,-4.511Z" style="fill-rule:nonzero;"/><path d="M107.465,44.619l-6.135,-0l-0,-13.069l-4.485,-0l-0,-5.181l15.105,-0l-0,5.181l-4.485,-0l-0,13.069Z" style="fill-rule:nonzero;"/><path d="M119.812,45.134c-0.739,0 -1.465,-0.064 -2.179,-0.193c-0.713,-0.129 -1.4,-0.318 -2.062,-0.567c-0.661,-0.25 -1.284,-0.542 -1.868,-0.877c-0.585,-0.335 -1.109,-0.709 -1.573,-1.121l3.738,-4.073c0.429,0.464 1.001,0.877 1.714,1.238c0.713,0.36 1.448,0.541 2.204,0.541c0.344,-0 0.657,-0.06 0.941,-0.181c0.283,-0.12 0.425,-0.343 0.425,-0.67c-0,-0.172 -0.047,-0.318 -0.142,-0.438c-0.094,-0.12 -0.262,-0.245 -0.502,-0.374c-0.241,-0.129 -0.572,-0.27 -0.993,-0.425c-0.421,-0.155 -0.949,-0.335 -1.585,-0.541c-0.619,-0.207 -1.212,-0.451 -1.779,-0.735c-0.567,-0.284 -1.069,-0.632 -1.508,-1.044c-0.438,-0.412 -0.786,-0.906 -1.044,-1.482c-0.257,-0.576 -0.386,-1.268 -0.386,-2.075c-0,-1.134 0.232,-2.097 0.696,-2.887c0.464,-0.791 1.061,-1.439 1.791,-1.946c0.731,-0.507 1.551,-0.872 2.462,-1.096c0.911,-0.223 1.813,-0.335 2.706,-0.335c1.203,0 2.428,0.232 3.674,0.696c1.246,0.464 2.341,1.134 3.286,2.011l-3.815,3.892c-0.412,-0.516 -0.919,-0.907 -1.521,-1.173c-0.601,-0.266 -1.142,-0.399 -1.624,-0.399c-0.446,-0 -0.807,0.064 -1.082,0.193c-0.275,0.129 -0.413,0.339 -0.413,0.631c0,0.275 0.142,0.482 0.426,0.619c0.283,0.138 0.743,0.309 1.379,0.516c0.653,0.206 1.34,0.446 2.062,0.721c0.722,0.275 1.388,0.632 1.998,1.07c0.61,0.438 1.112,0.975 1.508,1.611c0.395,0.636 0.592,1.426 0.592,2.372c0,1.099 -0.219,2.057 -0.657,2.874c-0.438,0.816 -1.014,1.495 -1.727,2.036c-0.713,0.541 -1.516,0.945 -2.41,1.212c-0.894,0.266 -1.804,0.399 -2.732,0.399Z" style="fill:#008f11;fill-rule:nonzero;"/><path d="M135.175,34.308l0.283,10.311l-5.722,-0l-0,-18.25l8.016,-0l3.3,9.821l0.129,-0l2.861,-9.821l8.274,-0l0,18.25l-5.954,-0l0.18,-10.26l-0.155,-0.025l-3.402,10.285l-4.331,-0l-3.351,-10.311l-0.128,-0Z" style="fill:#008f11;fill-rule:nonzero;"/><path d="M160.797,26.369l6.521,-0l7.115,18.25l-6.677,-0l-0.953,-2.681l-5.8,-0l-0.902,2.681l-6.496,-0l7.192,-18.25Zm3.17,6.366l-1.495,4.511l2.964,0l-1.469,-4.511Z" style="fill:#008f11;fill-rule:nonzero;"/><path d="M175.721,26.369l7.862,-0c0.894,-0 1.783,0.09 2.668,0.27c0.885,0.181 1.676,0.499 2.372,0.954c0.696,0.455 1.258,1.065 1.688,1.83c0.43,0.765 0.644,1.723 0.644,2.874c0,1.117 -0.275,2.101 -0.824,2.952c-0.55,0.85 -1.341,1.508 -2.372,1.972l4.64,7.398l-7.063,-0l-3.506,-6.522l-0.18,0l0,6.522l-5.929,-0l0,-18.25Zm5.877,7.707l1.212,-0c0.206,-0 0.434,-0.017 0.683,-0.052c0.249,-0.034 0.481,-0.107 0.696,-0.219c0.215,-0.112 0.395,-0.266 0.541,-0.464c0.146,-0.197 0.219,-0.459 0.219,-0.786c0,-0.326 -0.06,-0.584 -0.18,-0.773c-0.12,-0.189 -0.275,-0.331 -0.464,-0.426c-0.189,-0.094 -0.395,-0.154 -0.619,-0.18c-0.223,-0.026 -0.429,-0.039 -0.618,-0.039l-1.47,0l0,2.939Z" style="fill:#008f11;fill-rule:nonzero;"/><path d="M202.916,44.619l-6.135,-0l-0,-13.069l-4.485,-0l-0,-5.181l15.105,-0l-0,5.181l-4.485,-0l-0,13.069Z" style="fill:#008f11;fill-rule:nonzero;"/><path d="M4.427,29.762l-0,-11.723l6.24,-3.603l2.093,3.625l-4.147,2.394l-0,9.177c2.785,0.819 4.821,3.396 4.821,6.446c0,3.049 -2.036,5.626 -4.821,6.445l-0,9.177l27.058,15.622l7.943,-4.587c-0.043,-0.309 -0.066,-0.625 -0.066,-0.946c0,-3.707 3.01,-6.717 6.717,-6.717c1.563,0 3.002,0.535 4.143,1.431l8.321,-4.803l0,-4.234l4.186,0l-0,6.65l-10.176,5.876c0.159,0.572 0.243,1.175 0.243,1.797c0,3.708 -3.009,6.718 -6.717,6.718c-1.875,-0 -3.572,-0.771 -4.791,-2.012l-9.803,5.66l-31.244,-18.039l-0,-11.723c-2.581,-0.937 -4.427,-3.412 -4.427,-6.315c-0,-2.904 1.846,-5.379 4.427,-6.316Zm45.838,28.725c1.823,-0 3.303,1.48 3.303,3.302c-0,1.823 -1.48,3.303 -3.303,3.303c-1.822,-0 -3.302,-1.48 -3.302,-3.303c-0,-1.822 1.48,-3.302 3.302,-3.302Zm-14.594,-36.958l12.599,7.274l0,14.549l-12.599,7.274l-12.6,-7.274l0,-14.549l12.6,-7.274Zm-28.954,11.246c1.823,-0 3.303,1.48 3.303,3.303c-0,1.822 -1.48,3.302 -3.303,3.302c-1.823,0 -3.302,-1.48 -3.302,-3.302c-0,-1.823 1.479,-3.303 3.302,-3.303Zm25.463,-30.759l3.491,-2.016l31.244,18.039l-0,6.65l-4.186,-0l0,-4.234l-27.058,-15.622l-1.256,0.726c0.13,0.522 0.199,1.068 0.199,1.63c0,3.708 -3.009,6.718 -6.717,6.718c-3.707,-0 -6.717,-3.01 -6.717,-6.718c0,-3.707 3.01,-6.717 6.717,-6.717c1.627,0 3.119,0.58 4.283,1.544Zm-4.283,1.871c1.823,-0 3.303,1.48 3.303,3.302c-0,1.823 -1.48,3.303 -3.303,3.303c-1.822,-0 -3.302,-1.48 -3.302,-3.303c-0,-1.822 1.48,-3.302 3.302,-3.302Z" style="fill:#008f11;"/></g></svg>