<?xml version="1.0" encoding="UTF-8" standalone="no"?><!DOCTYPE svg PUBLIC "-//W3C//DTD SVG 1.1//EN" "http://www.w3.org/Graphics/SVG/1.1/DTD/svg11.dtd"><svg width="100%" height="100%" viewBox="0 0 208 73" version="1.1" xmlns="http://www.w3.org/2000/svg" xmlns:xlink="http://www.w3.org/1999/xlink" xml:space="preserve" xmlns:serif="http://www.serif.com/" style="fill-rule:evenodd;clip-rule:evenodd;stroke-linejoin:round;stroke-miterlimit:2;"><text x="69.949px" y="55.883px" style="font-family:'AvenirNext-Heavy', 'Avenir Next', sans-serif;font-weight:900;font-size:10.617px;fill:#008f11;">electricity &amp; engineering</text><g><path d="M59.365,34.308l0.284,10.311l-5.723,-0l0,-18.25l8.017,-0l3.299,9.821l0.129,-0l2.861,-9.821l8.275,-0l-0,18.25l-5.955,-0l0.181,-10.26l-0.155,-0.025l-3.403,10.285l-4.33,-0l-3.351,-10.311l-0.129,-0Z" style="fill-rule:nonzero;"/><path d="M84.987,26.369l6.522,-0l7.114,18.25l-6.676,-0l-0.954,-2.681l-5.8,-0l-0.902,2.681l-6.495,-0l7.191,-18.25Zm3.171,6.366l-1.495,4.511l2.964,0l-1.469,-4.511Z" style="fill-rule:nonzero;"/><path d="M107.465,44.619l-6.135,-0l-0,-13.069l-4.485,-0l-0,-5.181l15.105,-0l-0,5.181l-4.485,-0l-0,13.069Z" style="fill-rule:nonzero;"/><path d="M119.812,45.134c-0.739,0 -1.465,-0.064 -2.179,-0.193c-0.713,-0.129 -1.4,-0.318 -2.062,-0.567c-0.661,-0.25 -1.284,-0.542 -1.868,-0.877c-0.585,-0.335 -1.109,-0.709 -1.573,-1.121l3.738,-4.073c0.429,0.464 1.001,0.877 1.714,1.238c0.713,0.36 1.448,0.541 2.204,0.541c0.344,-0 0.657,-0.06 0.941,-0.181c0.283,-0.12 0.425,-0.343 0.425,-0.67c-0,-0.172 -0.047,-0.318 -0.142,-0.438c-0.094,-0.12 -0.262,-0.245 -0.502,-0.374c-0.241,-0.129 -0.572,-0.27 -0.993,-0.425c-0.421,-0.155 -0.949,-0.335 -1.585,-0.541c-0.619,-0.207 -1.212,-0.451 -1.779,-0.735c-0.567,-0.284 -1.069,-0.632 -1.508,-1.044c-0.438,-0.412 -0.786,-0.906 -1.044,-1.482c-0.257,-0.576 -0.386,-1.268 -0.386,-2.075c-0,-1.134 0.232,-2.097 0.696,-2.887c0.464,-0.791 1.061,-1.439 1.791,-1.946c0.731,-0.507 1.551,-0.872 2.462,-1.096c0.911,-0.223 1.813,-0.335 2.706,-0.335c1.203,0 2.428,0.232 3.674,0.696c1.246,0.464 2.341,1.134 3.286,2.011l-3.815,3.892c-0.412,-0.516 -0.919,-0.907 -1.521,-1.173c-0.601,-0.266 -1.142,-0.399 -1.624,-0.399c-0.446,-0 -0.807,0.064 -1.082,0.193c-0.275,0.129 -0.413,0.339 -0.413,0.631c0,0.275 0.142,0.482 0.426,0.619c0.283,0.138 0.743,0.309 1.379,0.516c0.653,0.206 1.34,0.446 2.062,0.721c0.722,0.275 1.388,0.632 1.998,1.07c0.61,0.438 1.112,0.975 1.508,1.611c0.395,0.636 0.592,1.426 0.592,2.372c0,1.099 -0.219,2.057 -0.657,2.874c-0.438,0.816 -1.014,1.495 -1.727,2.036c-0.713,0.541 -1.516,0.945 -2.41,1.212c-0.894,0.266 -1.804,0.399 -2.732,0.399Z" style="fill:#008f11;fill-rule:nonzero;"/><path d="M135.175,34.308l0.283,10.311l-5.722,-0l-0,-18.25l8.016,-0l3.3,9.821l0.129,-0l2.861,-9.821l8.274,-0l0,18.25l-5.954,-0l0.18,-10.26l-0.155,-0.025l-3.402,10.285l-4.331,-0l-3.351,-10.311l-0.128,-0Z" style="fill:#008f11;fill-rule:nonzero;"/><path d="M160.797,26.369l6.521,-0l7.115,18.25l-6.677,-0l-0.953,-2.681l-5.8,-0l-0.902,2.681l-6.496,-0l7.192,-18.25Zm3.17,6.366l-1.495,4.511l2.964,0l-1.469,-4.511Z" style="fill:#008f11;fill-rule:nonzero;"/><path d="M175.721,26.369l7.862,-0c0.894,-0 1.783,0.09 2.668,0.27c0.885,0.181 1.676,0.499 2.372,0.954c0.696,0.455 1.258,1.065 1.688,1.83c0.43,0.765 0.644,1.723 0.644,2.874c0,1.117 -0.275,2.101 -0.824,2.952c-0.55,0.85 -1.341,1.508 -2.372,1.972l4.64,7.398l-7.063,-0l-3.506,-6.522l-0.18,0l0,6.522l-5.929,-0l0,-18.25Zm5.877,7.707l1.212,-0c0.206,-0 0.434,-0.017 0.683,-0.052c0.249,-0.034 0.481,-0.107 0.696,-0.219c0.215,-0.112 0.395,-0.266 0.541,-0.464c0.146,-0.197 0.219,-0.459 0.219,-0.786c0,-0.326 -0.06,-0.584 -0.18,-0.773c-0.12,-0.189 -0.275,-0.331 -0.464,-0.426c-0.189,-0.094 -0.395,-0.154 -0.619,-0.18c-0.223,-0.026 -0.429,-0.039 -0.618,-0.039l-1.47,0l0,2.939Z" style="fill:#008f11;fill-rule:nonzero;"/><path d="M202.916,44.619l-6.135,-0l-0,-13.069l-4.485,-0l-0,-5.181l15.105,-0l-0,5.181l-4.485,-0l-0,13.069Z" style="fill:#008f11;fill-rule:nonzero;"/><path d="M4.427,29.762l-0,-11.723l6.24,-3.603l2.093,3.625l-4.147,2.394l-0,9.177c2.785,0.819 4.821,3.396 4.821,6.446c0,3.049 -2.036,5.626 -4.821,6.445l-0,9.177l27.058,15.622l7.943,-4.587c-0.043,-0.309 -0.066,-0.625 -0.066,-0.946c0,-3.707 3.01,-6.717 6.717,-6.717c1.563,0 3.002,0.535 4.143,1.431l8.321,-4.803l0,-4.234l4.186,0l-0,6.65l-10.176,5.876c0.159,0.572 0.243,1.175 0.243,1.797c0,3.708 -3.009,6.718 -6.717,6.718c-1.875,-0 -3.572,-0.771 -4.791,-2.012l-9.803,5.66l-31.244,-18.039l-0,-11.723c-2.581,-0.937 -4.427,-3.412 -4.427,-6.315c-0,-2.904 1.846,-5.379 4.427,-6.316Zm45.838,28.725c1.823,-0 3.303,1.48 3.303,3.302c-0,1.823 -1.48,3.303 -3.303,3.303c-1.822,-0 -3.302,-1.48 -3.302,-3.303c-0,-1.822 1.48,-3.302 3.302,-3.302Zm-14.594,-36.958l12.599,7.274l0,14.549l-12.599,7.274l-12.6,-7.274l0,-14.549l12.6,-7.274Zm-28.954,11.246c1.823,-0 3.303,1.48 3.303,3.303c-0,1.822 -1.48,3.302 -3.303,3.302c-1.823,0 -3.302,-1.48 -3.302,-3.302c-0,-1.823 1.479,-3.303 3.302,-3.303Zm25.463,-30.759l3.491,-2.016l31.244,18.039l-0,6.65l-4.186,-0l0,-4.234l-27.058,-15.622l-1.256,0.726c0.13,0.522 0.199,1.068 0.199,1.63c0,3.708 -3.009,6.718 -6.717,6.718c-3.707,-0 -6.717,-3.01 -6.717,-6.718c0,-3.707 3.01,-6.717 6.717,-6.717c1.627,0 3.119,0.58 4.283,1.544Zm-4.283,1.871c1.823,-0 3.303,1.48 3.303,3.302c-0,1.823 -1.48,3.303 -3.303,3.303c-1.822,-0 -3.302,-1.48 -3.302,-3.303c-0,-1.822 1.48,-3.302 3.302,-3.302Z" style="fill:#008f11;"/></g></svg>