<?xml version="1.0" encoding="UTF-8" standalone="no"?><!DOCTYPE svg PUBLIC "-//W3C//DTD SVG 1.1//EN" "http://www.w3.org/Graphics/SVG/1.1/DTD/svg11.dtd"><svg width="100%" height="100%" viewBox="0 0 208 73" version="1.1" xmlns="http://www.w3.org/2000/svg" xmlns:xlink="http://www.w3.org/1999/xlink" xml:space="preserve" xmlns:serif="http://www.serif.com/" style="fill-rule:evenodd;clip-rule:evenodd;stroke-linejoin:round;stroke-miterlimit:2;"><g><path d="M74.228,52.347c-0,-0.198 -0.073,-0.361 -0.218,-0.488c-0.145,-0.128 -0.341,-0.191 -0.589,-0.191c-0.269,-0 -0.478,0.074 -0.626,0.222c-0.149,0.149 -0.234,0.301 -0.255,0.457l1.688,0Zm2.113,0.796c-0,0.092 -0.002,0.186 -0.006,0.282c-0.003,0.095 -0.008,0.175 -0.016,0.239l-3.758,-0c0.007,0.099 0.041,0.187 0.101,0.265c0.06,0.078 0.134,0.145 0.223,0.202c0.088,0.056 0.187,0.099 0.297,0.127c0.11,0.028 0.221,0.043 0.335,0.043c0.226,-0 0.415,-0.041 0.568,-0.122c0.152,-0.082 0.267,-0.172 0.345,-0.271l1.741,0.881c-0.248,0.403 -0.607,0.722 -1.078,0.956c-0.471,0.233 -1.017,0.35 -1.64,0.35c-0.404,-0 -0.796,-0.064 -1.179,-0.191c-0.382,-0.128 -0.72,-0.317 -1.014,-0.568c-0.293,-0.251 -0.529,-0.565 -0.706,-0.94c-0.177,-0.375 -0.265,-0.81 -0.265,-1.306c-0,-0.46 0.081,-0.876 0.244,-1.247c0.163,-0.372 0.384,-0.687 0.664,-0.945c0.279,-0.259 0.608,-0.459 0.987,-0.6c0.379,-0.142 0.784,-0.212 1.216,-0.212c0.439,-0 0.838,0.076 1.199,0.228c0.361,0.152 0.671,0.364 0.929,0.637c0.259,0.272 0.459,0.596 0.6,0.971c0.142,0.375 0.213,0.782 0.213,1.221Z" style="fill:#008f11;fill-rule:nonzero;"/><rect x="77.201" y="47.856" width="2.506" height="8.027" style="fill:#008f11;fill-rule:nonzero;"/><path d="M84.548,52.347c-0,-0.198 -0.073,-0.361 -0.218,-0.488c-0.145,-0.128 -0.341,-0.191 -0.589,-0.191c-0.269,-0 -0.478,0.074 -0.626,0.222c-0.149,0.149 -0.234,0.301 -0.255,0.457l1.688,0Zm2.113,0.796c-0,0.092 -0.002,0.186 -0.006,0.282c-0.003,0.095 -0.008,0.175 -0.015,0.239l-3.759,-0c0.007,0.099 0.041,0.187 0.101,0.265c0.06,0.078 0.134,0.145 0.223,0.202c0.088,0.056 0.187,0.099 0.297,0.127c0.11,0.028 0.221,0.043 0.335,0.043c0.226,-0 0.415,-0.041 0.568,-0.122c0.152,-0.082 0.267,-0.172 0.345,-0.271l1.741,0.881c-0.248,0.403 -0.607,0.722 -1.078,0.956c-0.47,0.233 -1.017,0.35 -1.64,0.35c-0.404,-0 -0.796,-0.064 -1.179,-0.191c-0.382,-0.128 -0.72,-0.317 -1.014,-0.568c-0.293,-0.251 -0.529,-0.565 -0.706,-0.94c-0.177,-0.375 -0.265,-0.81 -0.265,-1.306c-0,-0.46 0.081,-0.876 0.244,-1.247c0.163,-0.372 0.384,-0.687 0.664,-0.945c0.279,-0.259 0.608,-0.459 0.987,-0.6c0.379,-0.142 0.784,-0.212 1.216,-0.212c0.439,-0 0.839,0.076 1.2,0.228c0.361,0.152 0.67,0.364 0.929,0.637c0.258,0.272 0.458,0.596 0.599,0.971c0.142,0.375 0.213,0.782 0.213,1.221Z" style="fill:#008f11;fill-rule:nonzero;"/><path d="M90.557,56.095c-0.474,-0 -0.909,-0.071 -1.306,-0.212c-0.396,-0.142 -0.739,-0.344 -1.029,-0.606c-0.291,-0.261 -0.517,-0.576 -0.68,-0.945c-0.163,-0.368 -0.244,-0.782 -0.244,-1.242c-0,-0.453 0.083,-0.865 0.249,-1.237c0.167,-0.371 0.398,-0.688 0.696,-0.95c0.297,-0.262 0.646,-0.464 1.046,-0.605c0.399,-0.142 0.833,-0.212 1.3,-0.212c0.191,-0 0.384,0.015 0.579,0.047c0.194,0.032 0.382,0.076 0.563,0.133c0.18,0.057 0.346,0.12 0.499,0.191c0.152,0.071 0.281,0.149 0.387,0.234l-1.221,1.762c-0.085,-0.099 -0.196,-0.175 -0.334,-0.228c-0.138,-0.053 -0.271,-0.08 -0.399,-0.08c-0.12,0 -0.237,0.02 -0.35,0.059c-0.113,0.039 -0.214,0.099 -0.302,0.18c-0.089,0.082 -0.162,0.181 -0.218,0.297c-0.057,0.117 -0.085,0.254 -0.085,0.409c-0,0.156 0.028,0.292 0.085,0.409c0.056,0.117 0.129,0.212 0.218,0.287c0.088,0.074 0.189,0.131 0.302,0.17c0.113,0.038 0.23,0.058 0.35,0.058c0.142,-0 0.28,-0.027 0.415,-0.08c0.134,-0.053 0.244,-0.125 0.329,-0.217l1.231,1.72c-0.233,0.184 -0.536,0.339 -0.907,0.467c-0.372,0.127 -0.763,0.191 -1.174,0.191Z" style="fill:#008f11;fill-rule:nonzero;"/><path d="M95.537,56.031c-0.75,0 -1.306,-0.161 -1.667,-0.483c-0.361,-0.322 -0.542,-0.823 -0.542,-1.502l0,-1.996l-0.785,-0l-0,-1.752l0.775,-0l-0,-1.253l2.378,0l0,1.253l1.21,-0l0,1.752l-1.21,-0l0,1.486c0,0.269 0.058,0.451 0.175,0.547c0.117,0.096 0.278,0.143 0.483,0.143c0.078,0 0.16,-0.007 0.245,-0.021c0.085,-0.014 0.152,-0.028 0.201,-0.042l0,1.677c-0.127,0.057 -0.306,0.103 -0.536,0.138c-0.23,0.036 -0.472,0.053 -0.727,0.053Z" style="fill:#008f11;fill-rule:nonzero;"/><path d="M97.575,50.298l2.357,-0l0,0.637l0.022,-0c0.12,-0.227 0.299,-0.414 0.536,-0.563c0.237,-0.148 0.515,-0.223 0.833,-0.223c0.191,0 0.347,0.018 0.467,0.053l-0.191,2.081c-0.078,-0.021 -0.164,-0.037 -0.26,-0.047c-0.095,-0.011 -0.182,-0.016 -0.26,-0.016c-0.318,-0 -0.573,0.092 -0.764,0.276c-0.191,0.184 -0.287,0.41 -0.287,0.679l-0,2.708l-2.453,-0l0,-5.585Z" style="fill:#008f11;fill-rule:nonzero;"/><path d="M102.311,50.298l2.452,-0l0,5.585l-2.452,-0l-0,-5.585Zm-0.043,-1.614c0,-0.17 0.034,-0.331 0.101,-0.483c0.067,-0.152 0.159,-0.285 0.276,-0.398c0.117,-0.113 0.253,-0.204 0.409,-0.271c0.156,-0.067 0.322,-0.101 0.499,-0.101c0.17,0 0.329,0.034 0.478,0.101c0.148,0.067 0.281,0.158 0.398,0.271c0.117,0.113 0.209,0.246 0.276,0.398c0.067,0.152 0.101,0.313 0.101,0.483c-0,0.177 -0.034,0.342 -0.101,0.494c-0.067,0.152 -0.159,0.283 -0.276,0.393c-0.117,0.109 -0.25,0.196 -0.398,0.26c-0.149,0.063 -0.308,0.095 -0.478,0.095c-0.177,0 -0.343,-0.032 -0.499,-0.095c-0.156,-0.064 -0.292,-0.151 -0.409,-0.26c-0.117,-0.11 -0.209,-0.241 -0.276,-0.393c-0.067,-0.152 -0.101,-0.317 -0.101,-0.494Z" style="fill:#008f11;fill-rule:nonzero;"/><path d="M108.936,56.095c-0.474,-0 -0.91,-0.071 -1.306,-0.212c-0.396,-0.142 -0.74,-0.344 -1.03,-0.606c-0.29,-0.261 -0.517,-0.576 -0.679,-0.945c-0.163,-0.368 -0.245,-0.782 -0.245,-1.242c0,-0.453 0.084,-0.865 0.25,-1.237c0.166,-0.371 0.398,-0.688 0.695,-0.95c0.298,-0.262 0.646,-0.464 1.046,-0.605c0.4,-0.142 0.834,-0.212 1.301,-0.212c0.191,-0 0.384,0.015 0.578,0.047c0.195,0.032 0.383,0.076 0.563,0.133c0.181,0.057 0.347,0.12 0.499,0.191c0.152,0.071 0.281,0.149 0.388,0.234l-1.221,1.762c-0.085,-0.099 -0.197,-0.175 -0.335,-0.228c-0.138,-0.053 -0.271,-0.08 -0.398,-0.08c-0.12,0 -0.237,0.02 -0.35,0.059c-0.114,0.039 -0.214,0.099 -0.303,0.18c-0.088,0.082 -0.161,0.181 -0.218,0.297c-0.056,0.117 -0.084,0.254 -0.084,0.409c-0,0.156 0.028,0.292 0.084,0.409c0.057,0.117 0.13,0.212 0.218,0.287c0.089,0.074 0.189,0.131 0.303,0.17c0.113,0.038 0.23,0.058 0.35,0.058c0.142,-0 0.28,-0.027 0.414,-0.08c0.135,-0.053 0.244,-0.125 0.329,-0.217l1.232,1.72c-0.234,0.184 -0.536,0.339 -0.908,0.467c-0.371,0.127 -0.763,0.191 -1.173,0.191Z" style="fill:#008f11;fill-rule:nonzero;"/><path d="M111.495,50.298l2.452,-0l0,5.585l-2.452,-0l-0,-5.585Zm-0.043,-1.614c0,-0.17 0.034,-0.331 0.101,-0.483c0.067,-0.152 0.159,-0.285 0.276,-0.398c0.117,-0.113 0.253,-0.204 0.409,-0.271c0.156,-0.067 0.322,-0.101 0.499,-0.101c0.17,0 0.329,0.034 0.478,0.101c0.148,0.067 0.281,0.158 0.398,0.271c0.117,0.113 0.209,0.246 0.276,0.398c0.067,0.152 0.101,0.313 0.101,0.483c-0,0.177 -0.034,0.342 -0.101,0.494c-0.067,0.152 -0.159,0.283 -0.276,0.393c-0.117,0.109 -0.25,0.196 -0.398,0.26c-0.149,0.063 -0.308,0.095 -0.478,0.095c-0.177,0 -0.343,-0.032 -0.499,-0.095c-0.156,-0.064 -0.292,-0.151 -0.409,-0.26c-0.117,-0.11 -0.209,-0.241 -0.276,-0.393c-0.067,-0.152 -0.101,-0.317 -0.101,-0.494Z" style="fill:#008f11;fill-rule:nonzero;"/><path d="M117.515,56.031c-0.751,0 -1.306,-0.161 -1.667,-0.483c-0.361,-0.322 -0.542,-0.823 -0.542,-1.502l0,-1.996l-0.785,-0l-0,-1.752l0.775,-0l-0,-1.253l2.378,0l-0,1.253l1.21,-0l0,1.752l-1.21,-0l-0,1.486c-0,0.269 0.058,0.451 0.175,0.547c0.117,0.096 0.278,0.143 0.483,0.143c0.078,0 0.159,-0.007 0.244,-0.021c0.085,-0.014 0.153,-0.028 0.202,-0.042l0,1.677c-0.127,0.057 -0.306,0.103 -0.536,0.138c-0.23,0.036 -0.472,0.053 -0.727,0.053Z" style="fill:#008f11;fill-rule:nonzero;"/><path d="M121.167,55.67l-2.261,-5.372l2.718,-0l0.828,2.941l0.042,-0l0.733,-2.941l2.622,-0l-2.293,5.924c-0.135,0.347 -0.287,0.657 -0.457,0.929c-0.169,0.273 -0.368,0.505 -0.594,0.696c-0.227,0.191 -0.494,0.336 -0.802,0.435c-0.308,0.099 -0.667,0.149 -1.077,0.149c-0.128,-0 -0.259,-0.006 -0.393,-0.016c-0.135,-0.011 -0.264,-0.025 -0.388,-0.043c-0.124,-0.017 -0.239,-0.035 -0.345,-0.053c-0.106,-0.017 -0.195,-0.037 -0.265,-0.058l0.308,-2.017c0.092,0.035 0.203,0.065 0.334,0.09c0.131,0.025 0.25,0.037 0.356,0.037c0.269,-0 0.469,-0.055 0.6,-0.165c0.131,-0.109 0.228,-0.249 0.292,-0.419l0.042,-0.117Z" style="fill:#008f11;fill-rule:nonzero;"/><path d="M133.94,55.341c-0.227,0.198 -0.515,0.363 -0.866,0.494c-0.35,0.131 -0.769,0.196 -1.258,0.196c-0.361,0 -0.718,-0.042 -1.072,-0.127c-0.354,-0.085 -0.671,-0.22 -0.95,-0.404c-0.28,-0.184 -0.508,-0.424 -0.685,-0.722c-0.177,-0.297 -0.266,-0.654 -0.266,-1.072c0,-0.241 0.039,-0.465 0.117,-0.674c0.078,-0.209 0.182,-0.397 0.313,-0.563c0.131,-0.166 0.287,-0.315 0.468,-0.446c0.18,-0.131 0.373,-0.239 0.578,-0.324c-0.205,-0.184 -0.378,-0.405 -0.52,-0.663c-0.142,-0.259 -0.212,-0.551 -0.212,-0.876c-0,-0.368 0.083,-0.68 0.249,-0.934c0.166,-0.255 0.381,-0.462 0.642,-0.622c0.262,-0.159 0.553,-0.274 0.871,-0.345c0.319,-0.07 0.63,-0.106 0.934,-0.106c0.312,0 0.622,0.037 0.929,0.112c0.308,0.074 0.586,0.193 0.834,0.355c0.248,0.163 0.449,0.374 0.605,0.632c0.156,0.258 0.234,0.572 0.234,0.94c-0,0.233 -0.039,0.444 -0.117,0.631c-0.078,0.188 -0.184,0.358 -0.319,0.51c-0.134,0.152 -0.288,0.29 -0.462,0.414c-0.173,0.124 -0.359,0.239 -0.557,0.345l0.52,0.489l0.584,-0.839l2.644,-0l-1.805,2.198l2.039,1.943l-2.952,-0l-0.52,-0.542Zm-1.635,-5.563c-0.163,-0 -0.285,0.049 -0.367,0.148c-0.081,0.099 -0.122,0.213 -0.122,0.34c0,0.12 0.036,0.234 0.106,0.34c0.071,0.106 0.167,0.205 0.287,0.297c0.163,-0.064 0.297,-0.15 0.404,-0.26c0.106,-0.11 0.159,-0.235 0.159,-0.377c-0,-0.142 -0.039,-0.258 -0.117,-0.35c-0.078,-0.092 -0.195,-0.138 -0.35,-0.138Zm-0.659,3.206c-0.099,0.035 -0.193,0.099 -0.281,0.191c-0.088,0.092 -0.133,0.223 -0.133,0.393c0,0.106 0.022,0.195 0.064,0.265c0.042,0.071 0.099,0.131 0.17,0.181c0.071,0.049 0.149,0.085 0.233,0.106c0.085,0.021 0.167,0.032 0.245,0.032c0.134,-0 0.26,-0.021 0.377,-0.064c0.116,-0.042 0.203,-0.095 0.26,-0.159l-0.935,-0.945Z" style="fill:#008f11;fill-rule:nonzero;"/><path d="M144.27,52.347c0,-0.198 -0.072,-0.361 -0.217,-0.488c-0.145,-0.128 -0.342,-0.191 -0.59,-0.191c-0.269,-0 -0.477,0.074 -0.626,0.222c-0.149,0.149 -0.234,0.301 -0.255,0.457l1.688,0Zm2.113,0.796c0,0.092 -0.002,0.186 -0.005,0.282c-0.004,0.095 -0.009,0.175 -0.016,0.239l-3.759,-0c0.008,0.099 0.041,0.187 0.101,0.265c0.06,0.078 0.135,0.145 0.223,0.202c0.089,0.056 0.188,0.099 0.298,0.127c0.109,0.028 0.221,0.043 0.334,0.043c0.227,-0 0.416,-0.041 0.568,-0.122c0.152,-0.082 0.267,-0.172 0.345,-0.271l1.741,0.881c-0.247,0.403 -0.607,0.722 -1.077,0.956c-0.471,0.233 -1.018,0.35 -1.641,0.35c-0.403,-0 -0.796,-0.064 -1.178,-0.191c-0.382,-0.128 -0.72,-0.317 -1.014,-0.568c-0.294,-0.251 -0.529,-0.565 -0.706,-0.94c-0.177,-0.375 -0.266,-0.81 -0.266,-1.306c0,-0.46 0.082,-0.876 0.245,-1.247c0.162,-0.372 0.384,-0.687 0.663,-0.945c0.28,-0.259 0.609,-0.459 0.988,-0.6c0.378,-0.142 0.783,-0.212 1.215,-0.212c0.439,-0 0.839,0.076 1.2,0.228c0.361,0.152 0.671,0.364 0.929,0.637c0.258,0.272 0.458,0.596 0.6,0.971c0.141,0.375 0.212,0.782 0.212,1.221Z" style="fill:#008f11;fill-rule:nonzero;"/><path d="M147.243,50.298l2.389,-0l0,0.616l0.021,-0c0.142,-0.206 0.352,-0.384 0.632,-0.536c0.28,-0.153 0.6,-0.229 0.961,-0.229c0.389,0 0.713,0.071 0.971,0.213c0.259,0.141 0.464,0.323 0.616,0.546c0.152,0.223 0.259,0.473 0.319,0.749c0.06,0.276 0.09,0.552 0.09,0.828l0,3.398l-2.463,-0l-0,-2.973c-0,-0.283 -0.044,-0.482 -0.133,-0.595c-0.088,-0.113 -0.221,-0.17 -0.398,-0.17c-0.163,0 -0.296,0.066 -0.398,0.197c-0.103,0.131 -0.154,0.32 -0.154,0.568l-0,2.973l-2.453,-0l0,-5.585Z" style="fill:#008f11;fill-rule:nonzero;"/><path d="M154.091,53.069c0,-0.361 0.055,-0.715 0.165,-1.062c0.11,-0.347 0.271,-0.658 0.483,-0.934c0.212,-0.276 0.478,-0.499 0.796,-0.669c0.319,-0.17 0.687,-0.255 1.105,-0.255c0.297,0 0.589,0.057 0.875,0.17c0.287,0.113 0.523,0.294 0.707,0.542l0.031,-0l0,-0.563l2.304,-0l0,5.011c0,0.609 -0.099,1.115 -0.297,1.519c-0.198,0.403 -0.462,0.723 -0.791,0.96c-0.329,0.238 -0.702,0.404 -1.12,0.499c-0.418,0.096 -0.842,0.144 -1.274,0.144c-0.531,-0 -1.062,-0.069 -1.593,-0.207c-0.531,-0.138 -0.994,-0.342 -1.391,-0.611l1.073,-1.624c0.269,0.205 0.552,0.355 0.849,0.451c0.297,0.096 0.581,0.143 0.85,0.143c0.176,0 0.345,-0.023 0.504,-0.069c0.159,-0.046 0.299,-0.113 0.419,-0.201c0.121,-0.089 0.216,-0.199 0.287,-0.33c0.071,-0.13 0.106,-0.281 0.106,-0.451l0,-0.244l-0.032,0c-0.134,0.156 -0.334,0.294 -0.6,0.414c-0.265,0.12 -0.568,0.181 -0.907,0.181c-0.432,-0 -0.807,-0.076 -1.126,-0.229c-0.318,-0.152 -0.584,-0.357 -0.796,-0.615c-0.213,-0.259 -0.37,-0.558 -0.473,-0.898c-0.102,-0.339 -0.154,-0.697 -0.154,-1.072Zm2.273,0c-0,0.269 0.077,0.494 0.233,0.674c0.156,0.181 0.382,0.271 0.68,0.271c0.29,-0 0.522,-0.092 0.695,-0.276c0.173,-0.184 0.26,-0.407 0.26,-0.669c0,-0.248 -0.087,-0.464 -0.26,-0.648c-0.173,-0.184 -0.405,-0.276 -0.695,-0.276c-0.298,0 -0.524,0.092 -0.68,0.276c-0.156,0.184 -0.233,0.4 -0.233,0.648Z" style="fill:#008f11;fill-rule:nonzero;"/><path d="M161.725,50.298l2.453,-0l-0,5.585l-2.453,-0l0,-5.585Zm-0.042,-1.614c-0,-0.17 0.033,-0.331 0.101,-0.483c0.067,-0.152 0.159,-0.285 0.276,-0.398c0.116,-0.113 0.253,-0.204 0.408,-0.271c0.156,-0.067 0.323,-0.101 0.499,-0.101c0.17,0 0.33,0.034 0.478,0.101c0.149,0.067 0.282,0.158 0.398,0.271c0.117,0.113 0.209,0.246 0.276,0.398c0.068,0.152 0.101,0.313 0.101,0.483c0,0.177 -0.033,0.342 -0.101,0.494c-0.067,0.152 -0.159,0.283 -0.276,0.393c-0.116,0.109 -0.249,0.196 -0.398,0.26c-0.148,0.063 -0.308,0.095 -0.478,0.095c-0.176,0 -0.343,-0.032 -0.499,-0.095c-0.155,-0.064 -0.292,-0.151 -0.408,-0.26c-0.117,-0.11 -0.209,-0.241 -0.276,-0.393c-0.068,-0.152 -0.101,-0.317 -0.101,-0.494Z" style="fill:#008f11;fill-rule:nonzero;"/><path d="M165.314,50.298l2.389,-0l-0,0.616l0.021,-0c0.142,-0.206 0.352,-0.384 0.632,-0.536c0.279,-0.153 0.6,-0.229 0.961,-0.229c0.389,0 0.713,0.071 0.971,0.213c0.258,0.141 0.464,0.323 0.616,0.546c0.152,0.223 0.258,0.473 0.318,0.749c0.061,0.276 0.091,0.552 0.091,0.828l-0,3.398l-2.464,-0l0,-2.973c0,-0.283 -0.044,-0.482 -0.132,-0.595c-0.089,-0.113 -0.221,-0.17 -0.398,-0.17c-0.163,0 -0.296,0.066 -0.399,0.197c-0.102,0.131 -0.153,0.32 -0.153,0.568l-0,2.973l-2.453,-0l-0,-5.585Z" style="fill:#008f11;fill-rule:nonzero;"/><path d="M176.101,52.347c0,-0.198 -0.072,-0.361 -0.218,-0.488c-0.145,-0.128 -0.341,-0.191 -0.589,-0.191c-0.269,-0 -0.478,0.074 -0.626,0.222c-0.149,0.149 -0.234,0.301 -0.255,0.457l1.688,0Zm2.113,0.796c-0,0.092 -0.002,0.186 -0.005,0.282c-0.004,0.095 -0.009,0.175 -0.016,0.239l-3.759,-0c0.007,0.099 0.041,0.187 0.101,0.265c0.06,0.078 0.135,0.145 0.223,0.202c0.088,0.056 0.188,0.099 0.297,0.127c0.11,0.028 0.221,0.043 0.335,0.043c0.226,-0 0.416,-0.041 0.568,-0.122c0.152,-0.082 0.267,-0.172 0.345,-0.271l1.741,0.881c-0.248,0.403 -0.607,0.722 -1.078,0.956c-0.47,0.233 -1.017,0.35 -1.64,0.35c-0.403,-0 -0.796,-0.064 -1.178,-0.191c-0.383,-0.128 -0.721,-0.317 -1.014,-0.568c-0.294,-0.251 -0.53,-0.565 -0.706,-0.94c-0.177,-0.375 -0.266,-0.81 -0.266,-1.306c0,-0.46 0.081,-0.876 0.244,-1.247c0.163,-0.372 0.384,-0.687 0.664,-0.945c0.279,-0.259 0.609,-0.459 0.987,-0.6c0.379,-0.142 0.784,-0.212 1.216,-0.212c0.439,-0 0.839,0.076 1.2,0.228c0.361,0.152 0.67,0.364 0.929,0.637c0.258,0.272 0.458,0.596 0.6,0.971c0.141,0.375 0.212,0.782 0.212,1.221Z" style="fill:#008f11;fill-rule:nonzero;"/><path d="M182.79,52.347c0,-0.198 -0.073,-0.361 -0.218,-0.488c-0.145,-0.128 -0.341,-0.191 -0.589,-0.191c-0.269,-0 -0.478,0.074 -0.626,0.222c-0.149,0.149 -0.234,0.301 -0.255,0.457l1.688,0Zm2.113,0.796c-0,0.092 -0.002,0.186 -0.005,0.282c-0.004,0.095 -0.009,0.175 -0.016,0.239l-3.759,-0c0.007,0.099 0.041,0.187 0.101,0.265c0.06,0.078 0.134,0.145 0.223,0.202c0.088,0.056 0.188,0.099 0.297,0.127c0.11,0.028 0.221,0.043 0.335,0.043c0.226,-0 0.416,-0.041 0.568,-0.122c0.152,-0.082 0.267,-0.172 0.345,-0.271l1.741,0.881c-0.248,0.403 -0.607,0.722 -1.078,0.956c-0.47,0.233 -1.017,0.35 -1.64,0.35c-0.403,-0 -0.796,-0.064 -1.179,-0.191c-0.382,-0.128 -0.72,-0.317 -1.014,-0.568c-0.293,-0.251 -0.529,-0.565 -0.706,-0.94c-0.177,-0.375 -0.265,-0.81 -0.265,-1.306c-0,-0.46 0.081,-0.876 0.244,-1.247c0.163,-0.372 0.384,-0.687 0.664,-0.945c0.279,-0.259 0.609,-0.459 0.987,-0.6c0.379,-0.142 0.784,-0.212 1.216,-0.212c0.439,-0 0.839,0.076 1.2,0.228c0.361,0.152 0.67,0.364 0.929,0.637c0.258,0.272 0.458,0.596 0.6,0.971c0.141,0.375 0.212,0.782 0.212,1.221Z" style="fill:#008f11;fill-rule:nonzero;"/><path d="M185.763,50.298l2.357,-0l-0,0.637l0.021,-0c0.12,-0.227 0.299,-0.414 0.536,-0.563c0.237,-0.148 0.515,-0.223 0.834,-0.223c0.191,0 0.347,0.018 0.467,0.053l-0.191,2.081c-0.078,-0.021 -0.165,-0.037 -0.26,-0.047c-0.096,-0.011 -0.183,-0.016 -0.26,-0.016c-0.319,-0 -0.574,0.092 -0.765,0.276c-0.191,0.184 -0.287,0.41 -0.287,0.679l0,2.708l-2.452,-0l-0,-5.585Z" style="fill:#008f11;fill-rule:nonzero;"/><path d="M190.498,50.298l2.453,-0l-0,5.585l-2.453,-0l0,-5.585Zm-0.042,-1.614c-0,-0.17 0.033,-0.331 0.101,-0.483c0.067,-0.152 0.159,-0.285 0.276,-0.398c0.116,-0.113 0.253,-0.204 0.408,-0.271c0.156,-0.067 0.322,-0.101 0.499,-0.101c0.17,0 0.33,0.034 0.478,0.101c0.149,0.067 0.282,0.158 0.398,0.271c0.117,0.113 0.209,0.246 0.276,0.398c0.068,0.152 0.101,0.313 0.101,0.483c0,0.177 -0.033,0.342 -0.101,0.494c-0.067,0.152 -0.159,0.283 -0.276,0.393c-0.116,0.109 -0.249,0.196 -0.398,0.26c-0.148,0.063 -0.308,0.095 -0.478,0.095c-0.177,0 -0.343,-0.032 -0.499,-0.095c-0.155,-0.064 -0.292,-0.151 -0.408,-0.26c-0.117,-0.11 -0.209,-0.241 -0.276,-0.393c-0.068,-0.152 -0.101,-0.317 -0.101,-0.494Z" style="fill:#008f11;fill-rule:nonzero;"/><path d="M194.087,50.298l2.389,-0l-0,0.616l0.021,-0c0.142,-0.206 0.352,-0.384 0.632,-0.536c0.279,-0.153 0.6,-0.229 0.961,-0.229c0.389,0 0.713,0.071 0.971,0.213c0.258,0.141 0.464,0.323 0.616,0.546c0.152,0.223 0.258,0.473 0.318,0.749c0.061,0.276 0.091,0.552 0.091,0.828l-0,3.398l-2.464,-0l0,-2.973c0,-0.283 -0.044,-0.482 -0.132,-0.595c-0.089,-0.113 -0.221,-0.17 -0.398,-0.17c-0.163,0 -0.296,0.066 -0.399,0.197c-0.102,0.131 -0.154,0.32 -0.154,0.568l0,2.973l-2.452,-0l-0,-5.585Z" style="fill:#008f11;fill-rule:nonzero;"/><path d="M200.935,53.069c0,-0.361 0.055,-0.715 0.165,-1.062c0.109,-0.347 0.27,-0.658 0.483,-0.934c0.212,-0.276 0.477,-0.499 0.796,-0.669c0.319,-0.17 0.687,-0.255 1.104,-0.255c0.297,0 0.589,0.057 0.876,0.17c0.287,0.113 0.522,0.294 0.706,0.542l0.032,-0l0,-0.563l2.304,-0l-0,5.011c-0,0.609 -0.099,1.115 -0.297,1.519c-0.198,0.403 -0.462,0.723 -0.791,0.96c-0.329,0.238 -0.703,0.404 -1.12,0.499c-0.418,0.096 -0.843,0.144 -1.274,0.144c-0.531,-0 -1.062,-0.069 -1.593,-0.207c-0.531,-0.138 -0.995,-0.342 -1.391,-0.611l1.072,-1.624c0.269,0.205 0.552,0.355 0.85,0.451c0.297,0.096 0.58,0.143 0.849,0.143c0.177,0 0.345,-0.023 0.504,-0.069c0.16,-0.046 0.3,-0.113 0.42,-0.201c0.12,-0.089 0.216,-0.199 0.287,-0.33c0.07,-0.13 0.106,-0.281 0.106,-0.451l-0,-0.244l-0.032,0c-0.135,0.156 -0.335,0.294 -0.6,0.414c-0.265,0.12 -0.568,0.181 -0.908,0.181c-0.432,-0 -0.807,-0.076 -1.125,-0.229c-0.319,-0.152 -0.584,-0.357 -0.797,-0.615c-0.212,-0.259 -0.369,-0.558 -0.472,-0.898c-0.103,-0.339 -0.154,-0.697 -0.154,-1.072Zm2.272,0c0,0.269 0.078,0.494 0.234,0.674c0.155,0.181 0.382,0.271 0.679,0.271c0.29,-0 0.522,-0.092 0.696,-0.276c0.173,-0.184 0.26,-0.407 0.26,-0.669c-0,-0.248 -0.087,-0.464 -0.26,-0.648c-0.174,-0.184 -0.406,-0.276 -0.696,-0.276c-0.297,0 -0.524,0.092 -0.679,0.276c-0.156,0.184 -0.234,0.4 -0.234,0.648Z" style="fill:#008f11;fill-rule:nonzero;"/></g><g><path d="M59.365,34.308l0.284,10.311l-5.723,-0l0,-18.25l8.017,-0l3.299,9.821l0.129,-0l2.861,-9.821l8.275,-0l-0,18.25l-5.955,-0l0.181,-10.26l-0.155,-0.025l-3.403,10.285l-4.33,-0l-3.351,-10.311l-0.129,-0Z" style="fill-rule:nonzero;"/><path d="M84.987,26.369l6.522,-0l7.114,18.25l-6.676,-0l-0.954,-2.681l-5.8,-0l-0.902,2.681l-6.495,-0l7.191,-18.25Zm3.171,6.366l-1.495,4.511l2.964,0l-1.469,-4.511Z" style="fill-rule:nonzero;"/><path d="M107.465,44.619l-6.135,-0l-0,-13.069l-4.485,-0l-0,-5.181l15.105,-0l-0,5.181l-4.485,-0l-0,13.069Z" style="fill-rule:nonzero;"/><path d="M119.812,45.134c-0.739,0 -1.465,-0.064 -2.179,-0.193c-0.713,-0.129 -1.4,-0.318 -2.062,-0.567c-0.661,-0.25 -1.284,-0.542 -1.868,-0.877c-0.585,-0.335 -1.109,-0.709 -1.573,-1.121l3.738,-4.073c0.429,0.464 1.001,0.877 1.714,1.238c0.713,0.36 1.448,0.541 2.204,0.541c0.344,-0 0.657,-0.06 0.941,-0.181c0.283,-0.12 0.425,-0.343 0.425,-0.67c-0,-0.172 -0.047,-0.318 -0.142,-0.438c-0.094,-0.12 -0.262,-0.245 -0.502,-0.374c-0.241,-0.129 -0.572,-0.27 -0.993,-0.425c-0.421,-0.155 -0.949,-0.335 -1.585,-0.541c-0.619,-0.207 -1.212,-0.451 -1.779,-0.735c-0.567,-0.284 -1.069,-0.632 -1.508,-1.044c-0.438,-0.412 -0.786,-0.906 -1.044,-1.482c-0.257,-0.576 -0.386,-1.268 -0.386,-2.075c-0,-1.134 0.232,-2.097 0.696,-2.887c0.464,-0.791 1.061,-1.439 1.791,-1.946c0.731,-0.507 1.551,-0.872 2.462,-1.096c0.911,-0.223 1.813,-0.335 2.706,-0.335c1.203,0 2.428,0.232 3.674,0.696c1.246,0.464 2.341,1.134 3.286,2.011l-3.815,3.892c-0.412,-0.516 -0.919,-0.907 -1.521,-1.173c-0.601,-0.266 -1.142,-0.399 -1.624,-0.399c-0.446,-0 -0.807,0.064 -1.082,0.193c-0.275,0.129 -0.413,0.339 -0.413,0.631c0,0.275 0.142,0.482 0.426,0.619c0.283,0.138 0.743,0.309 1.379,0.516c0.653,0.206 1.34,0.446 2.062,0.721c0.722,0.275 1.388,0.632 1.998,1.07c0.61,0.438 1.112,0.975 1.508,1.611c0.395,0.636 0.592,1.426 0.592,2.372c0,1.099 -0.219,2.057 -0.657,2.874c-0.438,0.816 -1.014,1.495 -1.727,2.036c-0.713,0.541 -1.516,0.945 -2.41,1.212c-0.894,0.266 -1.804,0.399 -2.732,0.399Z" style="fill:#008f11;fill-rule:nonzero;"/><path d="M135.175,34.308l0.283,10.311l-5.722,-0l-0,-18.25l8.016,-0l3.3,9.821l0.129,-0l2.861,-9.821l8.274,-0l0,18.25l-5.954,-0l0.18,-10.26l-0.155,-0.025l-3.402,10.285l-4.331,-0l-3.351,-10.311l-0.128,-0Z" style="fill:#008f11;fill-rule:nonzero;"/><path d="M160.797,26.369l6.521,-0l7.115,18.25l-6.677,-0l-0.953,-2.681l-5.8,-0l-0.902,2.681l-6.496,-0l7.192,-18.25Zm3.17,6.366l-1.495,4.511l2.964,0l-1.469,-4.511Z" style="fill:#008f11;fill-rule:nonzero;"/><path d="M175.721,26.369l7.862,-0c0.894,-0 1.783,0.09 2.668,0.27c0.885,0.181 1.676,0.499 2.372,0.954c0.696,0.455 1.258,1.065 1.688,1.83c0.43,0.765 0.644,1.723 0.644,2.874c0,1.117 -0.275,2.101 -0.824,2.952c-0.55,0.85 -1.341,1.508 -2.372,1.972l4.64,7.398l-7.063,-0l-3.506,-6.522l-0.18,0l0,6.522l-5.929,-0l0,-18.25Zm5.877,7.707l1.212,-0c0.206,-0 0.434,-0.017 0.683,-0.052c0.249,-0.034 0.481,-0.107 0.696,-0.219c0.215,-0.112 0.395,-0.266 0.541,-0.464c0.146,-0.197 0.219,-0.459 0.219,-0.786c0,-0.326 -0.06,-0.584 -0.18,-0.773c-0.12,-0.189 -0.275,-0.331 -0.464,-0.426c-0.189,-0.094 -0.395,-0.154 -0.619,-0.18c-0.223,-0.026 -0.429,-0.039 -0.618,-0.039l-1.47,0l0,2.939Z" style="fill:#008f11;fill-rule:nonzero;"/><path d="M202.916,44.619l-6.135,-0l-0,-13.069l-4.485,-0l-0,-5.181l15.105,-0l-0,5.181l-4.485,-0l-0,13.069Z" style="fill:#008f11;fill-rule:nonzero;"/><path d="M4.427,29.762l-0,-11.723l6.24,-3.603l2.093,3.625l-4.147,2.394l-0,9.177c2.785,0.819 4.821,3.396 4.821,6.446c0,3.049 -2.036,5.626 -4.821,6.445l-0,9.177l27.058,15.622l7.943,-4.587c-0.043,-0.309 -0.066,-0.625 -0.066,-0.946c0,-3.707 3.01,-6.717 6.717,-6.717c1.563,0 3.002,0.535 4.143,1.431l8.321,-4.803l0,-4.234l4.186,0l-0,6.65l-10.176,5.876c0.159,0.572 0.243,1.175 0.243,1.797c0,3.708 -3.009,6.718 -6.717,6.718c-1.875,-0 -3.572,-0.771 -4.791,-2.012l-9.803,5.66l-31.244,-18.039l-0,-11.723c-2.581,-0.937 -4.427,-3.412 -4.427,-6.315c0,-2.904 1.846,-5.379 4.427,-6.316Zm45.838,28.725c1.823,-0 3.303,1.48 3.303,3.302c-0,1.823 -1.48,3.303 -3.303,3.303c-1.822,-0 -3.302,-1.48 -3.302,-3.303c-0,-1.822 1.48,-3.302 3.302,-3.302Zm-14.594,-36.958l12.599,7.274l0,14.549l-12.599,7.274l-12.6,-7.274l0,-14.549l12.6,-7.274Zm-28.954,11.246c1.823,-0 3.303,1.48 3.303,3.303c-0,1.822 -1.48,3.302 -3.303,3.302c-1.823,0 -3.302,-1.48 -3.302,-3.302c-0,-1.823 1.479,-3.303 3.302,-3.303Zm25.463,-30.759l3.491,-2.016l31.244,18.039l-0,6.65l-4.186,-0l0,-4.234l-27.058,-15.622l-1.256,0.726c0.13,0.522 0.199,1.068 0.199,1.63c0,3.708 -3.009,6.718 -6.717,6.718c-3.707,-0 -6.717,-3.01 -6.717,-6.718c0,-3.707 3.01,-6.717 6.717,-6.717c1.627,0 3.119,0.58 4.283,1.544Zm-4.283,1.871c1.823,-0 3.303,1.48 3.303,3.302c-0,1.823 -1.48,3.303 -3.303,3.303c-1.822,-0 -3.302,-1.48 -3.302,-3.303c-0,-1.822 1.48,-3.302 3.302,-3.302Z" style="fill:#008f11;"/></g></svg>