<?xml version="1.0" encoding="UTF-8" standalone="no"?><!DOCTYPE svg PUBLIC "-//W3C//DTD SVG 1.1//EN" "http://www.w3.org/Graphics/SVG/1.1/DTD/svg11.dtd"><svg width="100%" height="100%" viewBox="0 0 35 8" version="1.1" xmlns="http://www.w3.org/2000/svg" xmlns:xlink="http://www.w3.org/1999/xlink" xml:space="preserve" xmlns:serif="http://www.serif.com/" style="fill-rule:evenodd;clip-rule:evenodd;stroke-linejoin:round;stroke-miterlimit:2;"><g><path d="M0.952,6.209c-0,-0.048 -0.018,-0.088 -0.053,-0.118c-0.035,-0.031 -0.082,-0.047 -0.142,-0.047c-0.065,0 -0.116,0.018 -0.152,0.054c-0.036,0.036 -0.056,0.073 -0.061,0.111l0.408,-0Zm0.51,0.192c0,0.022 -0,0.045 -0.001,0.068c-0.001,0.023 -0.002,0.042 -0.004,0.058l-0.908,-0c0.002,0.024 0.01,0.045 0.024,0.064c0.015,0.019 0.033,0.035 0.054,0.049c0.022,0.013 0.045,0.023 0.072,0.03c0.026,0.007 0.053,0.011 0.081,0.011c0.055,-0 0.1,-0.01 0.137,-0.03c0.037,-0.02 0.065,-0.041 0.083,-0.065l0.421,0.213c-0.06,0.097 -0.147,0.174 -0.26,0.23c-0.114,0.057 -0.246,0.085 -0.397,0.085c-0.097,0 -0.192,-0.015 -0.284,-0.046c-0.093,-0.031 -0.174,-0.077 -0.245,-0.137c-0.071,-0.061 -0.128,-0.137 -0.171,-0.227c-0.043,-0.091 -0.064,-0.196 -0.064,-0.316c0,-0.111 0.02,-0.212 0.059,-0.301c0.039,-0.09 0.093,-0.166 0.16,-0.229c0.068,-0.062 0.147,-0.11 0.239,-0.145c0.091,-0.034 0.189,-0.051 0.294,-0.051c0.106,0 0.202,0.019 0.289,0.055c0.088,0.037 0.162,0.088 0.225,0.154c0.062,0.066 0.111,0.144 0.145,0.235c0.034,0.091 0.051,0.189 0.051,0.295Z" style="fill:#fc9f1d;fill-rule:nonzero;"/><rect x="1.67" y="5.124" width="0.605" height="1.939" style="fill:#fc9f1d;fill-rule:nonzero;"/><path d="M3.445,6.209c-0,-0.048 -0.018,-0.088 -0.053,-0.118c-0.035,-0.031 -0.082,-0.047 -0.142,-0.047c-0.065,0 -0.115,0.018 -0.151,0.054c-0.036,0.036 -0.057,0.073 -0.062,0.111l0.408,-0Zm0.51,0.192c0,0.022 -0,0.045 -0.001,0.068c-0.001,0.023 -0.002,0.042 -0.004,0.058l-0.908,-0c0.002,0.024 0.01,0.045 0.025,0.064c0.014,0.019 0.032,0.035 0.053,0.049c0.022,0.013 0.046,0.023 0.072,0.03c0.027,0.007 0.054,0.011 0.081,0.011c0.055,-0 0.101,-0.01 0.137,-0.03c0.037,-0.02 0.065,-0.041 0.084,-0.065l0.42,0.213c-0.06,0.097 -0.146,0.174 -0.26,0.23c-0.114,0.057 -0.246,0.085 -0.396,0.085c-0.098,0 -0.193,-0.015 -0.285,-0.046c-0.092,-0.031 -0.174,-0.077 -0.245,-0.137c-0.071,-0.061 -0.128,-0.137 -0.171,-0.227c-0.042,-0.091 -0.064,-0.196 -0.064,-0.316c0,-0.111 0.02,-0.212 0.059,-0.301c0.04,-0.09 0.093,-0.166 0.161,-0.229c0.067,-0.062 0.147,-0.11 0.238,-0.145c0.092,-0.034 0.19,-0.051 0.294,-0.051c0.106,0 0.203,0.019 0.29,0.055c0.087,0.037 0.162,0.088 0.224,0.154c0.063,0.066 0.111,0.144 0.145,0.235c0.034,0.091 0.051,0.189 0.051,0.295Z" style="fill:#fc9f1d;fill-rule:nonzero;"/><path d="M4.897,7.114c-0.115,0 -0.22,-0.017 -0.316,-0.051c-0.095,-0.034 -0.178,-0.083 -0.249,-0.146c-0.07,-0.064 -0.124,-0.14 -0.164,-0.229c-0.039,-0.089 -0.059,-0.189 -0.059,-0.3c0,-0.109 0.02,-0.209 0.061,-0.299c0.04,-0.089 0.096,-0.166 0.168,-0.229c0.071,-0.064 0.156,-0.112 0.252,-0.147c0.097,-0.034 0.202,-0.051 0.314,-0.051c0.047,0 0.093,0.004 0.14,0.012c0.047,0.007 0.093,0.018 0.136,0.032c0.044,0.013 0.084,0.029 0.121,0.046c0.037,0.017 0.068,0.036 0.093,0.056l-0.295,0.426c-0.02,-0.024 -0.047,-0.042 -0.08,-0.055c-0.034,-0.013 -0.066,-0.019 -0.097,-0.019c-0.029,-0 -0.057,0.005 -0.084,0.014c-0.028,0.009 -0.052,0.024 -0.073,0.044c-0.022,0.019 -0.039,0.043 -0.053,0.071c-0.014,0.029 -0.02,0.061 -0.02,0.099c-0,0.038 0.006,0.071 0.02,0.099c0.014,0.028 0.031,0.051 0.053,0.069c0.021,0.018 0.045,0.032 0.073,0.041c0.027,0.01 0.055,0.014 0.084,0.014c0.035,0 0.068,-0.006 0.1,-0.019c0.033,-0.013 0.059,-0.03 0.08,-0.053l0.298,0.416c-0.057,0.044 -0.13,0.082 -0.22,0.113c-0.09,0.031 -0.184,0.046 -0.283,0.046Z" style="fill:#fc9f1d;fill-rule:nonzero;"/><path d="M6.1,7.099c-0.181,-0 -0.316,-0.039 -0.403,-0.117c-0.087,-0.078 -0.131,-0.199 -0.131,-0.363l0,-0.482l-0.19,-0l0,-0.424l0.188,0l-0,-0.302l0.574,-0l0,0.302l0.293,0l-0,0.424l-0.293,-0l0,0.359c0,0.065 0.014,0.109 0.043,0.132c0.028,0.023 0.067,0.035 0.116,0.035c0.019,-0 0.039,-0.002 0.059,-0.006c0.021,-0.003 0.037,-0.006 0.049,-0.01l0,0.405c-0.031,0.014 -0.074,0.025 -0.129,0.034c-0.056,0.008 -0.115,0.013 -0.176,0.013Z" style="fill:#fc9f1d;fill-rule:nonzero;"/><path d="M6.592,5.713l0.57,0l-0,0.154l0.005,0c0.029,-0.054 0.072,-0.1 0.129,-0.136c0.058,-0.035 0.125,-0.053 0.202,-0.053c0.046,-0 0.084,0.004 0.113,0.012l-0.047,0.503c-0.018,-0.005 -0.039,-0.009 -0.062,-0.011c-0.023,-0.003 -0.044,-0.004 -0.063,-0.004c-0.077,-0 -0.139,0.022 -0.185,0.066c-0.046,0.045 -0.069,0.1 -0.069,0.165l-0,0.654l-0.593,-0l0,-1.35Z" style="fill:#fc9f1d;fill-rule:nonzero;"/><path d="M9.173,6.383c-0,0.116 -0.021,0.22 -0.063,0.31c-0.042,0.091 -0.098,0.168 -0.169,0.23c-0.071,0.062 -0.153,0.11 -0.247,0.142c-0.093,0.033 -0.191,0.049 -0.293,0.049c-0.101,0 -0.198,-0.016 -0.291,-0.049c-0.094,-0.032 -0.175,-0.08 -0.245,-0.142c-0.071,-0.062 -0.127,-0.139 -0.168,-0.23c-0.042,-0.09 -0.063,-0.194 -0.063,-0.31c-0,-0.115 0.021,-0.217 0.063,-0.307c0.041,-0.089 0.097,-0.165 0.168,-0.227c0.07,-0.061 0.151,-0.108 0.245,-0.139c0.093,-0.032 0.19,-0.048 0.291,-0.048c0.102,0 0.2,0.016 0.293,0.048c0.094,0.031 0.176,0.078 0.247,0.139c0.071,0.062 0.127,0.138 0.169,0.227c0.042,0.09 0.063,0.192 0.063,0.307Zm-0.772,-0.223c-0.065,-0 -0.118,0.022 -0.158,0.067c-0.04,0.044 -0.06,0.096 -0.06,0.156c-0,0.063 0.02,0.117 0.061,0.162c0.041,0.044 0.094,0.066 0.159,0.066c0.065,0 0.118,-0.022 0.159,-0.066c0.041,-0.045 0.062,-0.099 0.062,-0.162c-0,-0.06 -0.021,-0.112 -0.063,-0.156c-0.042,-0.045 -0.095,-0.067 -0.16,-0.067Z" style="fill:#fc9f1d;fill-rule:nonzero;"/><path d="M9.391,5.713l0.577,0l-0,0.149l0.005,0c0.034,-0.049 0.085,-0.092 0.153,-0.129c0.067,-0.037 0.145,-0.055 0.232,-0.055c0.094,-0 0.172,0.017 0.235,0.051c0.062,0.034 0.112,0.078 0.148,0.132c0.037,0.054 0.063,0.114 0.077,0.181c0.015,0.067 0.022,0.133 0.022,0.2l0,0.821l-0.595,-0l0,-0.718c0,-0.069 -0.011,-0.117 -0.032,-0.144c-0.021,-0.027 -0.053,-0.041 -0.096,-0.041c-0.04,-0 -0.072,0.016 -0.096,0.047c-0.025,0.032 -0.038,0.078 -0.038,0.138l0,0.718l-0.592,-0l-0,-1.35Z" style="fill:#fc9f1d;fill-rule:nonzero;"/><path d="M11.102,5.713l0.592,0l0,1.35l-0.592,-0l-0,-1.35Zm-0.01,-0.389c-0,-0.041 0.008,-0.08 0.024,-0.117c0.016,-0.037 0.038,-0.069 0.067,-0.096c0.028,-0.028 0.061,-0.049 0.098,-0.066c0.038,-0.016 0.078,-0.024 0.121,-0.024c0.041,-0 0.079,0.008 0.115,0.024c0.036,0.017 0.068,0.038 0.097,0.066c0.028,0.027 0.05,0.059 0.066,0.096c0.016,0.037 0.025,0.076 0.025,0.117c-0,0.042 -0.009,0.082 -0.025,0.119c-0.016,0.037 -0.038,0.068 -0.066,0.095c-0.029,0.026 -0.061,0.047 -0.097,0.063c-0.036,0.015 -0.074,0.023 -0.115,0.023c-0.043,-0 -0.083,-0.008 -0.121,-0.023c-0.037,-0.016 -0.07,-0.037 -0.098,-0.063c-0.029,-0.027 -0.051,-0.058 -0.067,-0.095c-0.016,-0.037 -0.024,-0.077 -0.024,-0.119Z" style="fill:#fc9f1d;fill-rule:nonzero;"/><path d="M12.702,7.114c-0.114,0 -0.219,-0.017 -0.315,-0.051c-0.096,-0.034 -0.179,-0.083 -0.249,-0.146c-0.07,-0.064 -0.125,-0.14 -0.164,-0.229c-0.039,-0.089 -0.059,-0.189 -0.059,-0.3c-0,-0.109 0.02,-0.209 0.06,-0.299c0.04,-0.089 0.096,-0.166 0.168,-0.229c0.072,-0.064 0.156,-0.112 0.253,-0.147c0.096,-0.034 0.201,-0.051 0.314,-0.051c0.046,0 0.093,0.004 0.14,0.012c0.047,0.007 0.092,0.018 0.136,0.032c0.043,0.013 0.084,0.029 0.12,0.046c0.037,0.017 0.068,0.036 0.094,0.056l-0.295,0.426c-0.02,-0.024 -0.047,-0.042 -0.081,-0.055c-0.033,-0.013 -0.065,-0.019 -0.096,-0.019c-0.029,-0 -0.057,0.005 -0.085,0.014c-0.027,0.009 -0.051,0.024 -0.073,0.044c-0.021,0.019 -0.039,0.043 -0.052,0.071c-0.014,0.029 -0.021,0.061 -0.021,0.099c0,0.038 0.007,0.071 0.021,0.099c0.013,0.028 0.031,0.051 0.052,0.069c0.022,0.018 0.046,0.032 0.073,0.041c0.028,0.01 0.056,0.014 0.085,0.014c0.034,0 0.068,-0.006 0.1,-0.019c0.033,-0.013 0.059,-0.03 0.08,-0.053l0.297,0.416c-0.056,0.044 -0.129,0.082 -0.219,0.113c-0.09,0.031 -0.184,0.046 -0.284,0.046Z" style="fill:#fc9f1d;fill-rule:nonzero;"/><path d="M14.424,6.634c-0,0.091 -0.02,0.167 -0.058,0.229c-0.039,0.061 -0.087,0.11 -0.146,0.147c-0.059,0.037 -0.124,0.063 -0.194,0.08c-0.07,0.016 -0.137,0.024 -0.2,0.024c-0.116,0 -0.231,-0.017 -0.343,-0.05c-0.112,-0.033 -0.209,-0.081 -0.291,-0.142l0.29,-0.336c0.041,0.037 0.09,0.068 0.145,0.091c0.056,0.023 0.109,0.034 0.16,0.034c0.021,0 0.04,-0.004 0.058,-0.011c0.018,-0.008 0.027,-0.022 0.027,-0.043c0,-0.022 -0.016,-0.039 -0.047,-0.052c-0.032,-0.013 -0.087,-0.029 -0.166,-0.048c-0.043,-0.01 -0.086,-0.025 -0.131,-0.044c-0.044,-0.02 -0.085,-0.046 -0.121,-0.079c-0.037,-0.032 -0.068,-0.072 -0.092,-0.119c-0.023,-0.047 -0.035,-0.103 -0.035,-0.168c-0,-0.087 0.019,-0.162 0.057,-0.223c0.039,-0.062 0.087,-0.112 0.146,-0.15c0.059,-0.039 0.124,-0.067 0.193,-0.085c0.069,-0.018 0.135,-0.027 0.196,-0.027c0.104,0 0.208,0.016 0.31,0.046c0.103,0.031 0.195,0.074 0.277,0.129l-0.277,0.331c-0.042,-0.028 -0.086,-0.049 -0.13,-0.065c-0.045,-0.015 -0.088,-0.023 -0.131,-0.023c-0.029,0 -0.053,0.004 -0.072,0.012c-0.019,0.008 -0.028,0.023 -0.028,0.045c-0,0.017 0.01,0.03 0.032,0.039c0.021,0.01 0.07,0.022 0.147,0.038c0.053,0.01 0.105,0.026 0.156,0.047c0.05,0.022 0.095,0.049 0.135,0.082c0.041,0.034 0.073,0.074 0.097,0.122c0.024,0.048 0.036,0.104 0.036,0.169Z" style="fill:#fc9f1d;fill-rule:nonzero;"/><path d="M16.473,6.932c-0.055,0.048 -0.124,0.088 -0.209,0.119c-0.085,0.032 -0.186,0.048 -0.304,0.048c-0.087,-0 -0.173,-0.011 -0.259,-0.031c-0.085,-0.021 -0.162,-0.053 -0.23,-0.098c-0.067,-0.044 -0.122,-0.102 -0.165,-0.174c-0.043,-0.072 -0.064,-0.158 -0.064,-0.259c-0,-0.058 0.009,-0.113 0.028,-0.163c0.019,-0.05 0.044,-0.096 0.076,-0.136c0.031,-0.04 0.069,-0.076 0.113,-0.108c0.043,-0.031 0.09,-0.057 0.139,-0.078c-0.049,-0.044 -0.091,-0.098 -0.125,-0.16c-0.034,-0.063 -0.052,-0.133 -0.052,-0.212c0,-0.089 0.021,-0.164 0.061,-0.226c0.04,-0.061 0.092,-0.111 0.155,-0.15c0.063,-0.038 0.133,-0.066 0.21,-0.083c0.077,-0.017 0.152,-0.026 0.226,-0.026c0.075,0 0.15,0.009 0.224,0.027c0.075,0.018 0.142,0.047 0.202,0.086c0.06,0.04 0.108,0.09 0.146,0.153c0.038,0.062 0.056,0.138 0.056,0.227c0,0.056 -0.009,0.107 -0.028,0.152c-0.019,0.046 -0.044,0.087 -0.077,0.124c-0.032,0.036 -0.069,0.07 -0.111,0.1c-0.042,0.03 -0.087,0.057 -0.135,0.083l0.126,0.118l0.141,-0.203l0.638,0l-0.436,0.531l0.493,0.47l-0.713,-0l-0.126,-0.131Zm-0.395,-1.344c-0.039,-0 -0.069,0.012 -0.088,0.036c-0.02,0.024 -0.03,0.051 -0.03,0.082c0,0.029 0.009,0.056 0.026,0.082c0.017,0.026 0.04,0.049 0.069,0.072c0.039,-0.016 0.072,-0.037 0.097,-0.063c0.026,-0.027 0.039,-0.057 0.039,-0.091c-0,-0.034 -0.009,-0.063 -0.028,-0.085c-0.019,-0.022 -0.047,-0.033 -0.085,-0.033Zm-0.159,0.774c-0.024,0.009 -0.047,0.024 -0.068,0.047c-0.021,0.022 -0.032,0.054 -0.032,0.095c0,0.025 0.005,0.047 0.015,0.064c0.011,0.017 0.024,0.031 0.041,0.043c0.018,0.012 0.036,0.021 0.057,0.026c0.02,0.005 0.04,0.008 0.059,0.008c0.032,-0 0.063,-0.005 0.091,-0.016c0.028,-0.01 0.049,-0.023 0.063,-0.038l-0.226,-0.229Z" style="fill:#fc9f1d;fill-rule:nonzero;"/><path d="M18.969,6.209c-0,-0.048 -0.018,-0.088 -0.053,-0.118c-0.035,-0.031 -0.082,-0.047 -0.142,-0.047c-0.065,0 -0.115,0.018 -0.151,0.054c-0.036,0.036 -0.057,0.073 -0.062,0.111l0.408,-0Zm0.51,0.192c0,0.022 -0,0.045 -0.001,0.068c-0.001,0.023 -0.002,0.042 -0.004,0.058l-0.908,-0c0.002,0.024 0.01,0.045 0.025,0.064c0.014,0.019 0.032,0.035 0.053,0.049c0.022,0.013 0.046,0.023 0.072,0.03c0.027,0.007 0.054,0.011 0.081,0.011c0.055,-0 0.101,-0.01 0.137,-0.03c0.037,-0.02 0.065,-0.041 0.084,-0.065l0.42,0.213c-0.059,0.097 -0.146,0.174 -0.26,0.23c-0.114,0.057 -0.246,0.085 -0.396,0.085c-0.098,0 -0.193,-0.015 -0.285,-0.046c-0.092,-0.031 -0.174,-0.077 -0.245,-0.137c-0.071,-0.061 -0.128,-0.137 -0.171,-0.227c-0.042,-0.091 -0.064,-0.196 -0.064,-0.316c0,-0.111 0.02,-0.212 0.059,-0.301c0.04,-0.09 0.093,-0.166 0.161,-0.229c0.067,-0.062 0.147,-0.11 0.238,-0.145c0.092,-0.034 0.19,-0.051 0.294,-0.051c0.106,0 0.203,0.019 0.29,0.055c0.087,0.037 0.162,0.088 0.224,0.154c0.063,0.066 0.111,0.144 0.145,0.235c0.034,0.091 0.051,0.189 0.051,0.295Z" style="fill:#fc9f1d;fill-rule:nonzero;"/><path d="M19.687,5.713l0.577,0l0,0.149l0.005,0c0.035,-0.049 0.086,-0.092 0.153,-0.129c0.068,-0.037 0.145,-0.055 0.232,-0.055c0.094,-0 0.173,0.017 0.235,0.051c0.062,0.034 0.112,0.078 0.149,0.132c0.036,0.054 0.062,0.114 0.077,0.181c0.014,0.067 0.021,0.133 0.021,0.2l0,0.821l-0.595,-0l0,-0.718c0,-0.069 -0.01,-0.117 -0.032,-0.144c-0.021,-0.027 -0.053,-0.041 -0.096,-0.041c-0.039,-0 -0.071,0.016 -0.096,0.047c-0.025,0.032 -0.037,0.078 -0.037,0.138l-0,0.718l-0.593,-0l0,-1.35Z" style="fill:#fc9f1d;fill-rule:nonzero;"/><path d="M21.342,6.383c-0,-0.087 0.013,-0.173 0.039,-0.257c0.027,-0.083 0.066,-0.159 0.117,-0.225c0.051,-0.067 0.116,-0.121 0.193,-0.162c0.076,-0.041 0.165,-0.061 0.266,-0.061c0.072,-0 0.143,0.013 0.212,0.041c0.069,0.027 0.126,0.071 0.171,0.13l0.007,0l0,-0.136l0.557,0l-0,1.211c-0,0.147 -0.024,0.27 -0.072,0.367c-0.048,0.098 -0.112,0.175 -0.191,0.232c-0.08,0.057 -0.17,0.098 -0.271,0.121c-0.101,0.023 -0.203,0.034 -0.308,0.034c-0.128,0 -0.256,-0.016 -0.384,-0.05c-0.129,-0.033 -0.241,-0.082 -0.336,-0.147l0.259,-0.393c0.065,0.05 0.133,0.086 0.205,0.109c0.072,0.023 0.14,0.035 0.205,0.035c0.043,0 0.084,-0.006 0.122,-0.017c0.038,-0.011 0.072,-0.027 0.101,-0.048c0.029,-0.022 0.052,-0.048 0.07,-0.08c0.017,-0.032 0.025,-0.068 0.025,-0.109l0,-0.059l-0.007,0c-0.033,0.038 -0.081,0.071 -0.145,0.1c-0.065,0.029 -0.138,0.044 -0.22,0.044c-0.104,-0 -0.195,-0.019 -0.272,-0.055c-0.077,-0.037 -0.141,-0.087 -0.192,-0.149c-0.051,-0.063 -0.089,-0.135 -0.114,-0.217c-0.025,-0.082 -0.037,-0.168 -0.037,-0.259Zm0.549,-0c-0,0.065 0.018,0.119 0.056,0.163c0.038,0.043 0.092,0.065 0.164,0.065c0.07,0 0.126,-0.022 0.168,-0.066c0.042,-0.045 0.063,-0.099 0.063,-0.162c0,-0.06 -0.021,-0.112 -0.063,-0.156c-0.042,-0.045 -0.098,-0.067 -0.168,-0.067c-0.072,-0 -0.126,0.022 -0.164,0.067c-0.038,0.044 -0.056,0.096 -0.056,0.156Z" style="fill:#fc9f1d;fill-rule:nonzero;"/><path d="M23.186,5.713l0.593,0l-0,1.35l-0.593,-0l-0,-1.35Zm-0.01,-0.389c-0,-0.041 0.008,-0.08 0.024,-0.117c0.016,-0.037 0.039,-0.069 0.067,-0.096c0.028,-0.028 0.061,-0.049 0.099,-0.066c0.037,-0.016 0.077,-0.024 0.12,-0.024c0.041,-0 0.08,0.008 0.116,0.024c0.035,0.017 0.068,0.038 0.096,0.066c0.028,0.027 0.05,0.059 0.066,0.096c0.017,0.037 0.025,0.076 0.025,0.117c-0,0.042 -0.008,0.082 -0.025,0.119c-0.016,0.037 -0.038,0.068 -0.066,0.095c-0.028,0.026 -0.061,0.047 -0.096,0.063c-0.036,0.015 -0.075,0.023 -0.116,0.023c-0.043,-0 -0.083,-0.008 -0.12,-0.023c-0.038,-0.016 -0.071,-0.037 -0.099,-0.063c-0.028,-0.027 -0.051,-0.058 -0.067,-0.095c-0.016,-0.037 -0.024,-0.077 -0.024,-0.119Z" style="fill:#fc9f1d;fill-rule:nonzero;"/><path d="M24.053,5.713l0.577,0l0,0.149l0.005,0c0.034,-0.049 0.085,-0.092 0.153,-0.129c0.067,-0.037 0.145,-0.055 0.232,-0.055c0.094,-0 0.172,0.017 0.235,0.051c0.062,0.034 0.112,0.078 0.149,0.132c0.036,0.054 0.062,0.114 0.076,0.181c0.015,0.067 0.022,0.133 0.022,0.2l0,0.821l-0.595,-0l0,-0.718c0,-0.069 -0.011,-0.117 -0.032,-0.144c-0.021,-0.027 -0.053,-0.041 -0.096,-0.041c-0.039,-0 -0.071,0.016 -0.096,0.047c-0.025,0.032 -0.037,0.078 -0.037,0.138l-0,0.718l-0.593,-0l-0,-1.35Z" style="fill:#fc9f1d;fill-rule:nonzero;"/><path d="M26.659,6.209c0,-0.048 -0.017,-0.088 -0.052,-0.118c-0.036,-0.031 -0.083,-0.047 -0.143,-0.047c-0.065,0 -0.115,0.018 -0.151,0.054c-0.036,0.036 -0.057,0.073 -0.062,0.111l0.408,-0Zm0.511,0.192c-0,0.022 -0.001,0.045 -0.002,0.068c-0.001,0.023 -0.002,0.042 -0.004,0.058l-0.908,-0c0.002,0.024 0.01,0.045 0.025,0.064c0.014,0.019 0.032,0.035 0.054,0.049c0.021,0.013 0.045,0.023 0.071,0.03c0.027,0.007 0.054,0.011 0.081,0.011c0.055,-0 0.101,-0.01 0.138,-0.03c0.036,-0.02 0.064,-0.041 0.083,-0.065l0.421,0.213c-0.06,0.097 -0.147,0.174 -0.261,0.23c-0.114,0.057 -0.246,0.085 -0.396,0.085c-0.098,0 -0.192,-0.015 -0.285,-0.046c-0.092,-0.031 -0.174,-0.077 -0.245,-0.137c-0.071,-0.061 -0.128,-0.137 -0.17,-0.227c-0.043,-0.091 -0.065,-0.196 -0.065,-0.316c0,-0.111 0.02,-0.212 0.059,-0.301c0.04,-0.09 0.093,-0.166 0.161,-0.229c0.067,-0.062 0.147,-0.11 0.238,-0.145c0.092,-0.034 0.19,-0.051 0.294,-0.051c0.106,0 0.203,0.019 0.29,0.055c0.087,0.037 0.162,0.088 0.224,0.154c0.063,0.066 0.111,0.144 0.145,0.235c0.034,0.091 0.052,0.189 0.052,0.295Z" style="fill:#fc9f1d;fill-rule:nonzero;"/><path d="M28.275,6.209c0,-0.048 -0.017,-0.088 -0.052,-0.118c-0.035,-0.031 -0.083,-0.047 -0.143,-0.047c-0.065,0 -0.115,0.018 -0.151,0.054c-0.036,0.036 -0.057,0.073 -0.062,0.111l0.408,-0Zm0.511,0.192c-0,0.022 -0.001,0.045 -0.002,0.068c-0.001,0.023 -0.002,0.042 -0.004,0.058l-0.908,-0c0.002,0.024 0.01,0.045 0.025,0.064c0.014,0.019 0.032,0.035 0.054,0.049c0.021,0.013 0.045,0.023 0.071,0.03c0.027,0.007 0.054,0.011 0.081,0.011c0.055,-0 0.101,-0.01 0.138,-0.03c0.036,-0.02 0.064,-0.041 0.083,-0.065l0.421,0.213c-0.06,0.097 -0.147,0.174 -0.261,0.23c-0.114,0.057 -0.246,0.085 -0.396,0.085c-0.098,0 -0.192,-0.015 -0.285,-0.046c-0.092,-0.031 -0.174,-0.077 -0.245,-0.137c-0.071,-0.061 -0.128,-0.137 -0.17,-0.227c-0.043,-0.091 -0.064,-0.196 -0.064,-0.316c-0,-0.111 0.019,-0.212 0.058,-0.301c0.04,-0.09 0.093,-0.166 0.161,-0.229c0.067,-0.062 0.147,-0.11 0.238,-0.145c0.092,-0.034 0.19,-0.051 0.294,-0.051c0.106,0 0.203,0.019 0.29,0.055c0.087,0.037 0.162,0.088 0.224,0.154c0.063,0.066 0.111,0.144 0.145,0.235c0.035,0.091 0.052,0.189 0.052,0.295Z" style="fill:#fc9f1d;fill-rule:nonzero;"/><path d="M28.993,5.713l0.57,0l-0,0.154l0.005,0c0.029,-0.054 0.072,-0.1 0.13,-0.136c0.057,-0.035 0.124,-0.053 0.201,-0.053c0.046,-0 0.084,0.004 0.113,0.012l-0.046,0.503c-0.019,-0.005 -0.04,-0.009 -0.063,-0.011c-0.023,-0.003 -0.044,-0.004 -0.063,-0.004c-0.077,-0 -0.139,0.022 -0.185,0.066c-0.046,0.045 -0.069,0.1 -0.069,0.165l-0,0.654l-0.593,-0l0,-1.35Z" style="fill:#fc9f1d;fill-rule:nonzero;"/><path d="M30.137,5.713l0.593,0l-0,1.35l-0.593,-0l0,-1.35Zm-0.01,-0.389c0,-0.041 0.008,-0.08 0.025,-0.117c0.016,-0.037 0.038,-0.069 0.066,-0.096c0.028,-0.028 0.061,-0.049 0.099,-0.066c0.038,-0.016 0.078,-0.024 0.121,-0.024c0.041,-0 0.079,0.008 0.115,0.024c0.036,0.017 0.068,0.038 0.096,0.066c0.028,0.027 0.051,0.059 0.067,0.096c0.016,0.037 0.024,0.076 0.024,0.117c0,0.042 -0.008,0.082 -0.024,0.119c-0.016,0.037 -0.039,0.068 -0.067,0.095c-0.028,0.026 -0.06,0.047 -0.096,0.063c-0.036,0.015 -0.074,0.023 -0.115,0.023c-0.043,-0 -0.083,-0.008 -0.121,-0.023c-0.038,-0.016 -0.071,-0.037 -0.099,-0.063c-0.028,-0.027 -0.05,-0.058 -0.066,-0.095c-0.017,-0.037 -0.025,-0.077 -0.025,-0.119Z" style="fill:#fc9f1d;fill-rule:nonzero;"/><path d="M31.004,5.713l0.578,0l-0,0.149l0.005,0c0.034,-0.049 0.085,-0.092 0.152,-0.129c0.068,-0.037 0.145,-0.055 0.232,-0.055c0.095,-0 0.173,0.017 0.235,0.051c0.063,0.034 0.112,0.078 0.149,0.132c0.037,0.054 0.062,0.114 0.077,0.181c0.014,0.067 0.022,0.133 0.022,0.2l-0,0.821l-0.595,-0l-0,-0.718c-0,-0.069 -0.011,-0.117 -0.032,-0.144c-0.022,-0.027 -0.054,-0.041 -0.097,-0.041c-0.039,-0 -0.071,0.016 -0.096,0.047c-0.025,0.032 -0.037,0.078 -0.037,0.138l-0,0.718l-0.593,-0l0,-1.35Z" style="fill:#fc9f1d;fill-rule:nonzero;"/><path d="M32.659,6.383c-0,-0.087 0.013,-0.173 0.04,-0.257c0.026,-0.083 0.065,-0.159 0.116,-0.225c0.052,-0.067 0.116,-0.121 0.193,-0.162c0.077,-0.041 0.166,-0.061 0.267,-0.061c0.071,-0 0.142,0.013 0.211,0.041c0.069,0.027 0.126,0.071 0.171,0.13l0.007,0l0,-0.136l0.557,0l0,1.211c0,0.147 -0.024,0.27 -0.072,0.367c-0.048,0.098 -0.111,0.175 -0.191,0.232c-0.079,0.057 -0.17,0.098 -0.27,0.121c-0.101,0.023 -0.204,0.034 -0.308,0.034c-0.129,0 -0.257,-0.016 -0.385,-0.05c-0.128,-0.033 -0.24,-0.082 -0.336,-0.147l0.259,-0.393c0.065,0.05 0.133,0.086 0.205,0.109c0.072,0.023 0.14,0.035 0.205,0.035c0.043,0 0.084,-0.006 0.122,-0.017c0.039,-0.011 0.073,-0.027 0.102,-0.048c0.029,-0.022 0.052,-0.048 0.069,-0.08c0.017,-0.032 0.025,-0.068 0.025,-0.109l0,-0.059l-0.007,0c-0.033,0.038 -0.081,0.071 -0.145,0.1c-0.064,0.029 -0.137,0.044 -0.219,0.044c-0.105,-0 -0.195,-0.019 -0.272,-0.055c-0.077,-0.037 -0.141,-0.087 -0.193,-0.149c-0.051,-0.063 -0.089,-0.135 -0.114,-0.217c-0.025,-0.082 -0.037,-0.168 -0.037,-0.259Zm0.549,-0c-0,0.065 0.019,0.119 0.056,0.163c0.038,0.043 0.093,0.065 0.164,0.065c0.071,0 0.127,-0.022 0.168,-0.066c0.042,-0.045 0.063,-0.099 0.063,-0.162c0,-0.06 -0.021,-0.112 -0.063,-0.156c-0.041,-0.045 -0.097,-0.067 -0.168,-0.067c-0.071,-0 -0.126,0.022 -0.164,0.067c-0.037,0.044 -0.056,0.096 -0.056,0.156Z" style="fill:#fc9f1d;fill-rule:nonzero;"/><path d="M1.213,1.885l0.063,2.299l-1.276,0l0,-4.069l1.787,-0l0.736,2.19l0.029,-0l0.638,-2.19l1.845,-0l-0,4.069l-1.328,0l0.04,-2.287l-0.034,-0.006l-0.759,2.293l-0.965,0l-0.748,-2.299l-0.028,0Z" style="fill-rule:nonzero;"/><path d="M6.926,0.115l1.454,-0l1.586,4.069l-1.488,0l-0.213,-0.598l-1.293,0l-0.201,0.598l-1.449,0l1.604,-4.069Zm0.707,1.42l-0.334,1.005l0.661,0l-0.327,-1.005Z" style="fill-rule:nonzero;"/><path d="M11.938,4.184l-1.368,0l-0,-2.914l-1,0l-0,-1.155l3.368,-0l-0,1.155l-1,0l-0,2.914Z" style="fill-rule:nonzero;"/><path d="M14.691,4.299c-0.165,0 -0.327,-0.014 -0.486,-0.043c-0.159,-0.029 -0.312,-0.071 -0.46,-0.126c-0.147,-0.056 -0.286,-0.121 -0.416,-0.196c-0.131,-0.075 -0.248,-0.158 -0.351,-0.25l0.833,-0.908c0.096,0.104 0.224,0.195 0.383,0.276c0.159,0.08 0.322,0.121 0.491,0.121c0.077,-0 0.147,-0.014 0.21,-0.041c0.063,-0.026 0.095,-0.076 0.095,-0.149c-0,-0.038 -0.011,-0.071 -0.032,-0.098c-0.021,-0.027 -0.058,-0.054 -0.112,-0.083c-0.054,-0.029 -0.127,-0.06 -0.221,-0.095c-0.094,-0.034 -0.212,-0.075 -0.354,-0.121c-0.138,-0.046 -0.27,-0.1 -0.396,-0.163c-0.127,-0.064 -0.239,-0.141 -0.337,-0.233c-0.097,-0.092 -0.175,-0.202 -0.232,-0.331c-0.058,-0.128 -0.087,-0.282 -0.087,-0.462c0,-0.253 0.052,-0.468 0.156,-0.644c0.103,-0.176 0.236,-0.321 0.399,-0.434c0.163,-0.113 0.346,-0.194 0.549,-0.244c0.203,-0.05 0.404,-0.075 0.603,-0.075c0.269,0 0.542,0.052 0.819,0.155c0.278,0.104 0.523,0.253 0.733,0.448l-0.85,0.868c-0.092,-0.115 -0.205,-0.202 -0.339,-0.261c-0.135,-0.06 -0.255,-0.089 -0.363,-0.089c-0.099,-0 -0.18,0.014 -0.241,0.043c-0.061,0.029 -0.092,0.076 -0.092,0.141c0,0.061 0.032,0.107 0.095,0.138c0.063,0.03 0.166,0.069 0.307,0.115c0.146,0.046 0.299,0.099 0.46,0.161c0.161,0.061 0.31,0.14 0.446,0.238c0.136,0.098 0.248,0.217 0.336,0.359c0.088,0.142 0.132,0.318 0.132,0.529c0,0.245 -0.049,0.459 -0.146,0.641c-0.098,0.182 -0.227,0.333 -0.386,0.454c-0.159,0.121 -0.338,0.211 -0.537,0.27c-0.199,0.059 -0.402,0.089 -0.609,0.089Z" style="fill:#fc9f1d;fill-rule:nonzero;"/><path d="M18.116,1.885l0.064,2.299l-1.276,0l-0,-4.069l1.787,-0l0.736,2.19l0.029,-0l0.638,-2.19l1.844,-0l0,4.069l-1.327,0l0.04,-2.287l-0.034,-0.006l-0.759,2.293l-0.966,0l-0.747,-2.299l-0.029,0Z" style="fill:#fc9f1d;fill-rule:nonzero;"/><path d="M23.829,0.115l1.455,-0l1.586,4.069l-1.489,0l-0.212,-0.598l-1.294,0l-0.201,0.598l-1.448,0l1.603,-4.069Zm0.707,1.42l-0.333,1.005l0.661,0l-0.328,-1.005Z" style="fill:#fc9f1d;fill-rule:nonzero;"/><path d="M27.157,0.115l1.753,-0c0.2,-0 0.398,0.02 0.595,0.06c0.198,0.041 0.374,0.111 0.529,0.213c0.155,0.102 0.281,0.238 0.376,0.408c0.096,0.171 0.144,0.384 0.144,0.641c0,0.249 -0.061,0.468 -0.184,0.658c-0.122,0.19 -0.299,0.336 -0.529,0.44l1.035,1.649l-1.575,0l-0.782,-1.454l-0.04,0l0,1.454l-1.322,0l0,-4.069Zm1.311,1.718l0.27,0c0.046,0 0.097,-0.003 0.152,-0.011c0.056,-0.008 0.107,-0.024 0.155,-0.049c0.048,-0.025 0.089,-0.059 0.121,-0.103c0.033,-0.044 0.049,-0.103 0.049,-0.176c-0,-0.072 -0.013,-0.13 -0.04,-0.172c-0.027,-0.042 -0.062,-0.074 -0.104,-0.095c-0.042,-0.021 -0.088,-0.034 -0.138,-0.04c-0.05,-0.006 -0.095,-0.009 -0.138,-0.009l-0.327,0l-0,0.655Z" style="fill:#fc9f1d;fill-rule:nonzero;"/><path d="M33.221,4.184l-1.368,0l0,-2.914l-1,0l-0,-1.155l3.368,-0l0,1.155l-1,0l-0,2.914Z" style="fill:#fc9f1d;fill-rule:nonzero;"/></g></svg>