<?xml version="1.0" encoding="UTF-8" standalone="no"?><!DOCTYPE svg PUBLIC "-//W3C//DTD SVG 1.1//EN" "http://www.w3.org/Graphics/SVG/1.1/DTD/svg11.dtd"><svg width="100%" height="100%" viewBox="0 0 13 14" version="1.1" xmlns="http://www.w3.org/2000/svg" xmlns:xlink="http://www.w3.org/1999/xlink" xml:space="preserve" xmlns:serif="http://www.serif.com/" style="fill-rule:evenodd;clip-rule:evenodd;stroke-linejoin:round;stroke-miterlimit:2;"><path d="M11.433,3.728l-4.932,-2.847l-0.229,0.132c0.024,0.095 0.037,0.195 0.037,0.297c-0,0.676 -0.549,1.225 -1.224,1.225c-0.676,-0 -1.225,-0.549 -1.225,-1.225c0,-0.675 0.549,-1.224 1.225,-1.224c0.296,0 0.568,0.106 0.78,0.281l0.636,-0.367l5.695,3.288l-0,6.575l-1.855,1.071c0.029,0.104 0.045,0.214 0.045,0.328c-0,0.675 -0.549,1.224 -1.225,1.224c-0.342,-0 -0.651,-0.141 -0.873,-0.367l-1.787,1.032l-5.694,-3.288l-0,-2.136c-0.471,-0.171 -0.807,-0.622 -0.807,-1.152c-0,-0.529 0.336,-0.98 0.807,-1.151l-0,-2.136l1.137,-0.657l0.382,0.661l-0.756,0.436l-0,1.673c0.507,0.149 0.879,0.619 0.879,1.174c-0,0.556 -0.372,1.026 -0.879,1.175l-0,1.673l4.931,2.847l1.448,-0.836c-0.008,-0.056 -0.012,-0.114 -0.012,-0.172c0,-0.676 0.549,-1.225 1.224,-1.225c0.285,0 0.547,0.098 0.755,0.261l1.517,-0.875l-0,-5.695Zm-4.932,0.196l2.297,1.326l-0,2.651l-2.297,1.326l-2.296,-1.326l-0,-2.651l2.296,-1.326Z" style="fill:#fff;"/></svg>